<svg xmlns="http://www.w3.org/2000/svg" width="95.977" height="100" viewBox="0 0 95.977 100"><defs><style>.a{fill:#c8b796;}.b{fill:#67523d;}.c{fill:#383027;}.d{fill:#fdfdfd;}.e{fill:#319647;}</style></defs><g transform="translate(1311.346 416.634)"><g transform="translate(-1311.346 -416.634)"><path class="a" d="M75.433,281.543a10.824,10.824,0,0,1,2.332,1.51,37.938,37.938,0,0,1,6.163,4.7,8.7,8.7,0,0,0,1.364,1.4c.023.365.223.48.565.4l0,0a3.119,3.119,0,0,0,1.814,1.11c.065.061.131.119.2.181a.342.342,0,0,0,.35.377c.085.108.169.219.254.327,0,.042,0,.088,0,.131.019-.046.038-.088.054-.134.257.031.38.246.549.4-.085.077-.165.154-.25.234-.131.442-.557.565-.734.254-.257-.453-.653-.323-.972-.477-.027-.042.019-.2-.111-.073l.127.058c.35,1.99-1.087,2.886-2.371,3.873-.1-.069-.4.038-.15-.292.4-.526,1.045-.934.991-1.875a5.429,5.429,0,0,1-2.494,1.445c-.976.242-1.81-.488-2.774-.549a.992.992,0,0,0,.649.757,4.614,4.614,0,0,0,2.275.542c.311,0,.757-.223.93.292l0,0c-.15-.027-.288-.019-.361.146-.119.019-.238.035-.354.054-.6-.081-1.191-.165-1.787-.246a9.557,9.557,0,0,1-4.277-4.669c.077-.073.015-.377.25-.181s.407.434.615.646c1,1.018,1.879,2.232,3.562,2.048.964.058,1.906.081,2.379-1.022.492-1.141.311-1.9-.7-2.936-.273-.277-.5-.6-.745-.9-.1-.184-.154-.461-.465-.242.081-.45-.284-.607-.546-.83a.157.157,0,0,0-.073-.111,19.493,19.493,0,0,0-3.65-2.486,11.4,11.4,0,0,0,3.439,2.69.17.17,0,0,0,.131.061c.008.1.015.2.027.3a1.728,1.728,0,0,0-.876.165c-.161-.43-.611-.046-.842-.3A11.258,11.258,0,0,0,77,286.377a31.084,31.084,0,0,0-3-1.748c-.023-.115-.008-.269-.081-.334a12.38,12.38,0,0,0-4.7-2.736c-.365-.108-.73-.219-1.091-.327a3.075,3.075,0,0,0-1.426-.457c-.069-.035-.138-.077-.207-.1-.012,0-.05.058-.073.088.081.023.161.042.242.065l-.361.2a10.779,10.779,0,0,0-2.332-.211,25.494,25.494,0,0,1-4.772-.465c-1.176-.43-1.937-1.479-3.032-2.052a1.24,1.24,0,0,1-.665-1.087,1.319,1.319,0,0,1,.108-.1,10.253,10.253,0,0,0,6.605,2.017,1.138,1.138,0,0,0,1.245-.719,1.519,1.519,0,0,0-.242-1.622,35.942,35.942,0,0,0-3.746-3.67,4.152,4.152,0,0,1-1.794-2.286l.184.184c.061.027.123.054.188.077-.019-.069-.035-.138-.054-.211-.054-.065-.1-.131-.158-.2-.257-.423-.4-.957-1.022-1.011l0,0a1.433,1.433,0,0,0-.738-1.283l.012.012a1.055,1.055,0,0,0-.519-.961c-.188-.342-.377-.684-.561-1.034-1.007-1.921-2.159-3.785-2.379-6.025a2.41,2.41,0,0,0-.561-1.406c-.634-2.013-.511-4.15-.9-6.325-.346.48-.138.922-.334,1.306a14.218,14.218,0,0,1-.077-2.382,6.99,6.99,0,0,0,.031-1.814c0-.119-.012-.242-.015-.361-.281-.6.142-1.207-.035-1.8a2.226,2.226,0,0,0,.25-1.053,20.6,20.6,0,0,1,.177-2.878,8.13,8.13,0,0,1,.576-2.4c.369.169.181.4.15.576a34.317,34.317,0,0,0-.338,6.34c.008.315-.15.776.407.853a28.3,28.3,0,0,1,.423,4.411c-.573.2-.231.615-.169.9a24.334,24.334,0,0,0,1.883,6.233c.7,1.36,1.187,2.836,2.006,4.161a26.1,26.1,0,0,0,4.088,5.326c.653.622,1.122,1.656,2.29,1.6l-.008-.012A18.464,18.464,0,0,0,67,275.683a.955.955,0,0,1,.607.438,1.02,1.02,0,0,0,.131.238c2,2.275,4.715,3.562,7.2,5.168C75.064,281.624,75.256,281.87,75.433,281.543Zm-3.1-.918c-.008.131.069.177.188.181-.077.354-.511.023-.642.33.246.192.58.33.692.573.519,1.118,1.6,1.549,2.513,2.186.1.077.207.154.311.227a.354.354,0,0,0,.423.311c.4.269.807.53,1.207.8.2.138.48.254.6.027.1-.2-.169-.342-.369-.43.307-.469.184-.765-.292-1.068-.918-.584-1.787-1.249-2.686-1.864a5.487,5.487,0,0,0-1.76-1.087c.008-.134-.065-.181-.184-.188-.1-.188-.223-.323-.469-.254C71.917,280.663,72.125,280.644,72.328,280.625Zm-11.681-.373c-.434-.434-1.007-.33-1.525-.434a2.407,2.407,0,0,0,1.483.5,9.707,9.707,0,0,0,3.693-.065c.876-.619,1.948.042,2.843-.446.042.05.088.1.131.15.2.246.511-.15.734.138.281.369.757.327,1.149.434.284.077.73.284.865-.108.1-.3-.323-.434-.576-.588a3.7,3.7,0,0,0-1.283-.4c-.461-.081-.465-.284-.234-.607a2.13,2.13,0,0,1,1.114.223c.788.342,1.333,1.222,2.344,1.064a.733.733,0,0,0,.123.092c.008,0,.038-.035.061-.05-.046-.031-.088-.061-.134-.088a10.353,10.353,0,0,1-2.5-1.894,5.292,5.292,0,0,0-2.221-1.794c-.077-.1-.211-.181-.3-.085-.123.134.065.169.138.234.127.4.619.53.684.968-.6.246-1.429.027-1.729.941a2.987,2.987,0,0,0-.707-1.495c-.546-.469-.865-.9-.181-1.549-1.007,0-1.391.423-1,1.087a2.043,2.043,0,0,1,.315,1.921c-.05.127-.234.3-.012.457.3-.058.069-.7.453-.492.292.158.1.546-.05.815-.334.58-.991.619-1.5.907A7.181,7.181,0,0,0,60.647,280.252Zm-6.809-18.659c-.023.526.008,1.018.6,1.2C54.238,262.392,54.038,261.993,53.838,261.593ZM80.205,294.32l-.119-.1c-.023.05-.065.1-.058.142a.149.149,0,0,0,.119.077C80.24,294.442,80.255,294.389,80.205,294.32Zm8.1-2.044.027-.054-.042,0Z" transform="translate(-45.553 -218.623)"/><path class="a" d="M182.484,341.284c.173-.1.323-.277.557-.234l.5-.1c.046.054.1.1.142.158-.073.169-.284.269-.238.492-.127,0-.188.058-.181.184a.16.16,0,0,0-.192.173c-.077.042-.154.088-.234.131l-.2.158c-.115.069-.227.142-.342.211a3.977,3.977,0,0,0-.972.211,2.79,2.79,0,0,1-2.69-.231c-.526-.277-.907-.753-1.522-1.064a9.666,9.666,0,0,0,1.226,2.271c-1.034-.146-1.445-1.1-2.136-1.683-.669-.561-.407-1.433-.434-2.19.092,0,.169-.012.073-.127-.019.046-.038.092-.061.138-1.149-.165-.865.872-1.18,1.406l-.035-.035c-.211-.173.484-.945-.434-.649-.05-.254.484-.626-.158-.761.015-.123.1-.257-.054-.354v.008c.123.035.234-.008.238-.131s-.1-.169-.227-.123c-.1-.3.115-.38.311-.48.058.085.127.242.177.234.131-.019.146-.131.061-.238l0,0a.183.183,0,0,0,.277.1.2.2,0,0,0,.088-.288h0c.111.219.254.119.392.035a4.675,4.675,0,0,0,2.171-1.31l0,0c.161.042.25-.031.292-.181a39.387,39.387,0,0,1,9.234-7.381,1.433,1.433,0,0,1,.346-.092,7.385,7.385,0,0,0,3.1-1.844l-.012.012c.354-.15.707-.292,1.057-.453.8-.365,1.406-1.057,2.244-1.368-.227,1.064-1.349,1.241-2,1.979a1.776,1.776,0,0,0,1.076-.257c.638-.269,1.03-1.306,1.971-.661a4.252,4.252,0,0,1,1.31-2.121,1.346,1.346,0,0,0,.542-.876,9.2,9.2,0,0,0-2.06,1.4c-.211.238-.365.665-.834.538-.1-.357.3-.465.365-.745l-.015.015c.065-.065.134-.131.2-.2l-.015.015c.065-.065.131-.134.2-.2l-.015.015c.065-.065.131-.135.2-.2l-.015.015c.065-.065.131-.131.192-.2l-.012.008c.311.054.231-.146.2-.315.092-.442.584-.334.811-.592.845-.046,1.283-.726,1.825-1.214a33.25,33.25,0,0,0,3.024-2.817l-.015.012c.519.119.734-.373,1.107-.546.038.042.081.081.119.123-.027.43-.542.607-.584,1.049.327.184.538-.111.8-.108l.065.061c.5.35.857.184,1.233-.238.327-.369.519-1.014,1.237-.8a1.1,1.1,0,0,1-.515,1.422,22.681,22.681,0,0,0-4.315,4.158,1.23,1.23,0,0,0,0,1.821c.184.081.369.158.553.238.242.469.7.311,1.045.281a10.288,10.288,0,0,0,6.16-2.2l.061.05a2.627,2.627,0,0,1-1.014,1.349,8.933,8.933,0,0,1-3.224,1.541l-.872.238a17.835,17.835,0,0,0-3.839.265,2.025,2.025,0,0,0,.269.038q1.867.017,3.735.027h0a.727.727,0,0,1-.038.158c-2.052.146-4.119.119-6.16.427-.63-.565-1.1.081-1.645.208l-1.1.323a12.788,12.788,0,0,0-5.187,3.216c-1.587,1.183-3.454,1.921-5.011,3.155a4.387,4.387,0,0,1-1.6.991c-.035-.038-.073-.077-.111-.115-.4-.427-.415-.761.173-1.053a10.829,10.829,0,0,0,1.134-.742c.4.019.573-.3.788-.542a2.936,2.936,0,0,1,1.068-.834,16.22,16.22,0,0,0,6.186-4.642c.077-.38-.769.446-.361-.361a.292.292,0,0,0,.307-.231c0-.019-.038-.065-.046-.065-.138.035-.265.092-.3.254a1.472,1.472,0,0,0-.423.134q-2.19,1.545-4.365,3.109c-.119.085-.323.238-.3.307.238.884-.584.98-1.011,1.241a8.717,8.717,0,0,0-1.752,1.418c-.768.438-1.71.676-1.987,1.691l.012-.015a5.88,5.88,0,0,0-2.336,2.817,2.1,2.1,0,0,0,1.072,2.505A2.941,2.941,0,0,0,182.484,341.284Zm17.391-19.224a.5.5,0,0,0-.031.065c.008-.023.015-.05.023-.073l.184-.184.058-.058c-.015.023-.035.046-.05.065Zm-.73.907a.4.4,0,0,0,.361-.365c.038-.035.2-.015.054-.127-.015.046-.027.092-.042.138-.242,0-.284.2-.369.357Zm1.487-1.741c-.15.019-.165.134-.165.246,0,.085.05.108.111.046.077-.081.142-.169.211-.254C200.736,321.249,200.683,321.238,200.633,321.226ZM174.565,339.34l.038-.058-.054-.008Zm16.83-11.393c-.019.012-.038.027-.058.038.015.015.031.042.05.046s.038-.023.058-.035A.309.309,0,0,0,191.4,327.947Z" transform="translate(-121.418 -266.449)"/><path class="b" d="M47.137,229.282c-.557-.081-.4-.538-.407-.853a34.317,34.317,0,0,1,.338-6.34c.031-.181.215-.407-.15-.576a8.1,8.1,0,0,0-.576,2.4,20.636,20.636,0,0,0-.177,2.878,2.2,2.2,0,0,1-.25,1.053,1.317,1.317,0,0,0,.035,1.8c0,.119.012.242.015.361a2.112,2.112,0,0,0-.031,1.814,14.637,14.637,0,0,0,.077,2.382c.2-.384-.012-.826.334-1.306.384,2.179.261,4.311.9,6.325.48.926-.242,1.768-.188,2.659-.4-.257-.115-.98-.734-1.1-.023-.134-.046-.269-.065-.4-.023.015-.061.027-.069.046a.283.283,0,0,0,.142.354A3,3,0,0,0,47,242.812c.023-.415.038-.672.054-.93.584.822.665,1.864,1.183,2.713.058.092.035.177-.019.3a1.744,1.744,0,0,0,1.253,1.906l.065-.012.065,0c-.188.277,1.037.073.192.573a.185.185,0,0,0-.031-.061c-.008-.012-.027-.012-.042-.015.027.023.05.046.077.073-.081.446.68.061.549.557.161.215.3.277.369-.058a.187.187,0,0,1,.027-.173,1.055,1.055,0,0,1,.519.961c-.108-.081-.219-.158-.327-.234-.054-.031-.111-.061-.165-.088.019.065.038.131.054.2a1.238,1.238,0,0,0,.615.9c-.081-.338-.134-.557-.188-.776a1.441,1.441,0,0,1,.738,1.283c-.1.031-.3.065-.3.092a.285.285,0,0,0,.3.269.161.161,0,0,0,.184.177l.065.1c0-.019,0-.042-.008-.05a.387.387,0,0,0-.069-.035c-.061-.061-.119-.123-.181-.184v-.369c.622.054.765.588,1.022,1.011-.054.046-.108.1-.161.142a4.169,4.169,0,0,0,1.794,2.286,35.941,35.941,0,0,1,3.746,3.67,1.525,1.525,0,0,1,.242,1.622,1.14,1.14,0,0,1-1.245.719,10.247,10.247,0,0,1-6.605-2.017c-.065-.119-.1-.284-.288-.25a.162.162,0,0,0-.1.111c-.019.2.154.2.28.238a1.224,1.224,0,0,0,.665,1.087c1.1.569,1.856,1.622,3.032,2.052l.207.53.338.246c-.046.2-.012.419-.377.25-.642-.3-1.322-.507-1.99-.753-.035-.184-.088-.365-.33-.319-.058.012-.158.123-.146.161.065.227.277.169.442.192.035.461.553.4.742.7-.134.027-.269.058-.407.085.015.023.031.061.054.069a.283.283,0,0,0,.369-.134,20.7,20.7,0,0,0,5.41.914c.307,0,.423.173.434.453a7.457,7.457,0,0,1-4.192-.281c-2.079-.722-4.327-1.2-5.783-3.036a7.063,7.063,0,0,1-1.779-5.983c.138-.657-.123-1.395.407-1.967a6.317,6.317,0,0,0,.369,2.805V253.26a1.29,1.29,0,0,1,.507,1.41c-.154,1.295.792,2.121,1.295,3.155a26.126,26.126,0,0,1-1.061-6.283c.5.492.4,1.172.557,1.771.465,1.825.976,3.643,2.813,4.58a11.671,11.671,0,0,0,4.93,1.164c.4.015.838-.038,1.007-.469a1.028,1.028,0,0,0-.361-1.064c-.964-1.064-2.167-1.86-3.212-2.832-2.805-2.613-5.556-5.276-6.982-8.965a.534.534,0,0,0-.042-.081c-2.194-2.932-2.974-6.421-3.712-9.875a64.859,64.859,0,0,1-.815-7.147c-.058-.573-.411-1.149-.031-1.729a2.016,2.016,0,0,1,.342,1.187c.073,2.275.8,4.465.922,6.736,0,.065.092.127.219.292a5.532,5.532,0,0,1,.073-1.495,10.509,10.509,0,0,0,1.395,4.715c-1.214-2.855-.93-5.917-1.487-8.926.538.154.184.63.511.811.023-.207.038-.384.058-.565.7-.661.292-1.426.2-2.159.15-2.021-.457-4.1.484-6.06.388-.807.131-1.214-.8-1.1-.019,0-.05-.065-.085-.119.238-.142.576.038.745-.246l-.008.012c.834-.161.68-.938.918-1.472l-.012.012a6.225,6.225,0,0,0,1.683-2.578c.361-1.134.9-2.225,1.268-3.339a6.858,6.858,0,0,1,2.521-3.416c.115.181.227.365.342.546-1.894,1.541-2.69,3.8-3.539,5.925-.68,1.706-.653,3.666-1.137,5.476a9.457,9.457,0,0,0-.392,2.682c-.138.108-.158.223-.023.35Q47.169,226.721,47.137,229.282Zm-.688,10.586c-.119-.311-.234-.619-.354-.93A.78.78,0,0,0,46.449,239.868Zm5.122,9.775c-.015-.023-.031-.042-.046-.065-.019.019-.05.038-.05.058s.027.042.042.065A.733.733,0,0,1,51.571,249.644Z" transform="translate(-40.722 -198.87)"/><path class="a" d="M49.34,192.793a6.8,6.8,0,0,0-2.521,3.416c-.369,1.114-.9,2.206-1.268,3.339a6.175,6.175,0,0,1-1.683,2.578c.008-.377.35-.722.077-1.2a1.443,1.443,0,0,1-1.929.719c-.826-.28-1.11-1.022-1.552-1.675-.25.488.311.9,0,1.391-.53-.323-.292-1.014-.726-1.33a3.2,3.2,0,0,0,1.944,3.185c.065.081.111.238.25.069-.088-.019-.173-.042-.261-.061-.031-.142-.238-.4.1-.361.845.1,1.437-.423,2.113-.749-.238.534-.085,1.31-.918,1.472-.158-.188-.327-.25-.584-.012h.6c-.169.284-.507.1-.745.246.038.054.065.123.085.119.934-.119,1.187.288.8,1.1-.941,1.964-.334,4.038-.484,6.06-.065.177.035.423-.219.526a13.132,13.132,0,0,1-.05-4.776c.234-1.368-.023-2.106-1.264-2.705a1.617,1.617,0,0,1-.826-.9c-.438-1.13-.861-2.267-1.226-3.42a6,6,0,0,1-.069-4.43c1.353-2.982,2.309-6.133,3.839-9.038.085-.161.192-.327-.031-.469a4.514,4.514,0,0,1,.972-1.775c.177-.223.488-.484.768-.273s.549.561.173.953c-.519-.169-.653.184-.818.561-.822,1.871-1.16,3.939-2.271,5.695a4.283,4.283,0,0,0-.33,3.566c.065.33-.177.526-.33.757-.649,1-.4,3.67.411,4.427.019.015.1-.038.15-.058l0,0c0,.788.584.853,1.137.83.323-.012.588-.115.569.35l-.918.207c-.123-.054-.246-.111-.369-.169-.077-.046-.154-.092-.227-.138s-.123-.115-.184-.177c-.058-.123-.181-.215-.269-.111-.111.134.077.165.158.219.058.061.115.119.173.181l.173.184.354.208c.473.181.934.311,1.245-.261a2.006,2.006,0,0,0,.365-1.775c-.949,1.049-1.272,1.11-1.856.357.8-.415.865-1.26,1.145-1.967a23.938,23.938,0,0,1,3.178-5.718c.038-.05.169-.031.257-.042.042.173.081.342.138.588a6.476,6.476,0,0,0,.976-2.425c.665-2.3,2.179-4.142,3.335-6.175.154-.269.4-.227.638-.215,0,.584-.465.957-.665,1.449-.423.054-.473.427-.588.719-.465,1.191-.865,2.413-1.387,3.581-.161.365-.138.415.158.63.327.238.549.5.842.008,1.168-1.21,2.571-2.217,3.312-3.793a23.749,23.749,0,0,1,1.925-3.312c.25-.365.515-.484.788-.327.419.242-.088.411-.142.626a1.354,1.354,0,0,1-.407.776,3.018,3.018,0,0,0-1.268,2.382c-.3.492-.6.988-.907,1.479a2.771,2.771,0,0,0-1.037,1.46,2.237,2.237,0,0,0-.661,1.068,1,1,0,0,0-.526.722A5.748,5.748,0,0,1,49.34,192.793Z" transform="translate(-38.095 -182.481)"/><path class="a" d="M252.5,185.9c-.069-.1-.173-.181-.2-.288-.123-.442-.246-.972.292-1.157.507-.173.815.2.911.711-.238.346.108.542.223.784.354.734.78,1.433,1.1,2.179,1.03,2.417,2.013,4.849,3.036,7.27.119.277.123.692.573.722.2.281.131.611.177.922-.257.138-.165.369-.119.561a6.993,6.993,0,0,1-.042,2.559v-1.31a22.744,22.744,0,0,1-1.522,4.465,2.869,2.869,0,0,1-1.11,1.4c-1.257.738-1.495,1.46-1.022,2.9a3.982,3.982,0,0,1,.138,1.46q-.081,1.625-.165,3.255c-.511-.63-.3-1.383-.361-2.09-.027-.307.158-.7-.327-.815a4.628,4.628,0,0,0-.046-2.893,4.01,4.01,0,0,0-.134-.972c-.334-.876,0-1.157.849-1.053.058.008.123-.038.3-.1l-.907-.177c.45-.215.968.031,1.207-.457l-.015.012a2.8,2.8,0,0,0,1.844-3.155c-.33.4-.108,1.149-.845,1.264.015-.488.48-.842.219-1.391-.2.357-.35.684-.549.976-.661.961-2,1.107-2.494.284.407.092.792.453,1.268.111-.273-.357-.7-.346-1.049-.457-.288-.092-.188.2-.208.357-.607-.357-.484.373-.8.634-.407-.915-1.218-1.479-1.291-2.49-.042-.549-.576-.938-.411-1.637.081-.342-.5-.838-.776-1.264-.188-.361-.377-.726-.565-1.087.292-.108.146-.284.042-.415a7.765,7.765,0,0,0-2.017-2.2,4.551,4.551,0,0,1-1.51-1.549c-.818-1.295-1.921-2.39-2.682-3.735a7.561,7.561,0,0,1-.757-1.591,2.74,2.74,0,0,0-1.291-2.013.143.143,0,0,1-.015-.146c.442-.1-.3-.8.388-.772l-.008-.008c.031.111-.1.419.219.181a6.081,6.081,0,0,1,1.33,2.24,10.557,10.557,0,0,0,3.27,4.173,4.226,4.226,0,0,1,.473.538c.5.369.792.315.891-.211a2.222,2.222,0,0,0-.238-1.472,13.637,13.637,0,0,1-1.2-3.431,15.378,15.378,0,0,1,2.89,5.153c.315.8.4,1.821,1.087,2.282,1.03.692,1.329,1.771,1.887,2.709.369.622.661,1.295,1.068,1.9.115.134.292.254.338.411A9.494,9.494,0,0,0,255,200.463c-.292.519-.838.042-1.168.284.273.592.711.711,1.21.315a1.915,1.915,0,0,0,.872-1.084c.158-.211.434-.411.45-.634.131-1.671.257-3.351-.676-4.876l.008.019a3.5,3.5,0,0,0-.465-3.316,24.574,24.574,0,0,1-1.733-4.5,3.785,3.785,0,0,0-.653-1.249C252.73,185.643,252.73,185.858,252.5,185.9Zm-3.735,5.844-.123.123c.042.019.085.035.123.054a1.7,1.7,0,0,0,.991,1.137c-.745-.834-.488-2.125-1.372-3.016C248.223,190.765,248.622,191.226,248.768,191.744Zm4.492,7.885c-.169-.461-.338-.922-.519-1.41C252.031,199.034,252.757,199.291,253.26,199.629Zm-.511,1.56.111.123c.012-.023.038-.058.035-.069a.549.549,0,0,0-.1-.108Zm2.59.446c-.065-.081-.065-.207-.188-.123-.065.046-.154.111-.165.181-.015.1.077.138.165.1A1.579,1.579,0,0,0,255.339,201.635Z" transform="translate(-163.003 -183.058)"/><path class="b" d="M253.937,234.039q.081-1.625.165-3.251c.484-.761.088-1.568.277-2.559-.369.465-.108.868-.415,1.1-.473-1.445-.234-2.167,1.022-2.9a2.852,2.852,0,0,0,1.111-1.4,22.5,22.5,0,0,0,1.522-4.465v1.31a6.992,6.992,0,0,0,.042-2.559c-.042-.192-.138-.423.119-.561a6.968,6.968,0,0,1-.085,4.715,20.082,20.082,0,0,0-1.356,6.329c-.392,3.4-.822,6.809-1.16,10.217a18.619,18.619,0,0,1-.7,3.735c-.108-.031-.277-.119-.3.031a30.784,30.784,0,0,1-2,5.38c-.092.234.035.407.3.438a32.778,32.778,0,0,1-9.61,12.119,14.083,14.083,0,0,0-1.671,1.541,1.838,1.838,0,0,0-.7,1.5,1.227,1.227,0,0,1,0-1.821,22.914,22.914,0,0,1,4.315-4.158,1.094,1.094,0,0,0,.515-1.422c.077-.15.154-.3.234-.45.576-.2.58-1.061,1.287-1.1.111.227.238.223.38.027.227-.3.457-.607.684-.907.069-.073.138-.146.207-.223h-.031c.45-.027.519-.453.738-.719.169-.2.173-.523.461-.634a1.866,1.866,0,0,0,1.13-1.806,3.238,3.238,0,0,1,.392-1.514,3.051,3.051,0,0,0,.557-1.756c-.357.438-.261,1.2-1.045,1.145.964-3.65,2.09-7.266,2.3-11.086.054.43.108.861.169,1.333.284-.173.3-.5.58-.534.119.484-.161.922-.173,1.391-.269.008-.277-.3-.373-.365-.692,1.218-.261,2.6-.626,3.873a.3.3,0,0,0,.3.434,13.6,13.6,0,0,0-.338,3.9c.453-1.656,1.222-3.032,1.249-4.626l-.012.015c.142-.081.208-.181.077-.327.058-.611.73-1.23-.038-1.825-.008-.3-.173-.646.269-.784.108.2-.077.476.188.646a32.209,32.209,0,0,0,1.595-7.666c.169-2.567.6-5.114.911-7.67-.9,3.185-1.114,6.471-1.679,9.7a13.736,13.736,0,0,0-.069-1.445.5.5,0,0,0-.676-.3Zm-2.167,14.824c.046-.065.088-.134.134-.2l-.069-.046c-.023.081-.042.161-.065.246-.046.061-.092.127-.138.192l.069.046C251.724,249.025,251.747,248.944,251.77,248.864Zm3.155-16.642c.492-1.979.377-3.754.665-5.483A15,15,0,0,0,254.925,232.222Zm2.624-9.537a1.7,1.7,0,0,0,.046-.281c0-.038-.054-.073-.081-.111a1.506,1.506,0,0,0-.058.254C257.453,222.585,257.507,222.623,257.549,222.685Zm-.181.323c-.019.008-.05.008-.058.019a.129.129,0,0,0-.015.085c.027.077.065.069.088-.023C257.392,223.065,257.373,223.034,257.369,223.007Z" transform="translate(-162.173 -204.757)"/><path class="c" d="M188.153,350.355c.28-1.014,1.218-1.253,1.99-1.691l.215.215a11.254,11.254,0,0,1-1.134.742c-.592.292-.569.626-.173,1.053-.069.031-.181.046-.108.154.015.027.146-.023.223-.038a4.44,4.44,0,0,0,1.6-.991c1.56-1.233,3.424-1.971,5.011-3.155.8.046,1.291-.569,1.921-.884.9-.427,1.983-.446,2.7-1.26.092-.031.181-.061.273-.1.023,0,.042,0,.065-.008a.835.835,0,0,0-.1,0c-.1-.4.427-.58.33-.972l1.1-.323c-.012.369-.354.423-.692.665h5.748c0-.061,0-.123,0-.184h-2.148c.669-.365,1.437.038,2.086-.419-.945.088-1.879-.346-2.824.027-.238.1-.492.046-.53-.3,2.04-.311,4.108-.281,6.16-.427.2.023.427.092.542-.154.027-.058-.023-.15-.038-.223l-.465.219h0c-.054-.111-.111-.219-.165-.33l.872-.238a1.36,1.36,0,0,0,1.8.4c.357-.284.465.054.6.138.269.169.1.365-.123.465-.43.188-.8.557-1.337.469-.069-.284.519-.284.234-.665q-.5.15-1,.3c-.784-.281-1.529.227-2.306.158h2.148c-.4.469-1.018,0-1.445.319.626.584,1.287-.046,2.156.042a2.182,2.182,0,0,1-1.2.415c-1.061-.115-2.017.6-3.093.38-.3-.061-.411.192-.446.461-.849.008-1.695.012-2.544.019-.154-.177-.261-.111-.357.061-1.08.392-2.24.45-3.328.865a36.2,36.2,0,0,0-10.113,5.983c-1.026.841-2.236,1.475-2.886,2.713-.192.365-.53.68-.442,1.153,0,.088-.008.173-.012.261a2.1,2.1,0,0,1-1.072-2.505,5.82,5.82,0,0,1,2.336-2.817c.035.131.111.211.254.161.035-.012.05-.077.073-.119A2.448,2.448,0,0,0,188.153,350.355Z" transform="translate(-128.701 -280.488)"/><path class="a" d="M257.145,252.858c-.284.038-.3.365-.58.538-.058-.469-.115-.9-.169-1.333-.207,3.816-1.333,7.435-2.3,11.086q-1.014,1.908-2.025,3.816a.774.774,0,0,0-.357.753l.008-.012c-.134,0-.184.073-.192.192l.012-.012-.192.192.008-.012c-.065.127-.127.254-.192.38l.008-.012a1.273,1.273,0,0,0-.553,1.107l.008-.012c-.707.042-.711.907-1.287,1.1-.119-.561.161-1.172-.165-1.768a5.123,5.123,0,0,1-2.817,2.248c-.038-.042-.081-.081-.119-.123.227-.5.757-.68,1.107-1.049a35.637,35.637,0,0,0,4.165-5.583,47.811,47.811,0,0,0,2.79-6.071,17.564,17.564,0,0,0,1-4.419,7.308,7.308,0,0,0,.227-2.74l.023-.922a6.855,6.855,0,0,0,.357-2.64,53.361,53.361,0,0,0-.354-6.505l.012-.012c.108.077.215.154.323.234.142.649.288,1.3.43,1.948v1.56c.146-.377.246-.642.35-.907a8.838,8.838,0,0,0,.111,4.108,1.007,1.007,0,0,1-.027.45,13.7,13.7,0,0,0-.058,3.174c-.05.388.012.715.461.826C257.149,252.577,257.149,252.716,257.145,252.858ZM253,262.956c.1-.085.188-.173.284-.257a1.221,1.221,0,0,0,.357-1.26c-.215.476-.361.8-.5,1.114a.367.367,0,0,0-.127.415l-.1.077c.019,0,.05,0,.058-.008A.5.5,0,0,0,253,262.956Z" transform="translate(-165.961 -218.488)"/><path class="c" d="M68.732,344.384c-.188-.3-.707-.238-.742-.7l.031-.035c.665.246,1.345.457,1.987.753.365.169.33-.05.377-.25l1.833.035c0,.131,0,.261-.008.392-.315-.035-.653-.211-.945.158.346-.012.68.131.941-.165H75.84c0,.073,0,.146,0,.215H73.727a9.177,9.177,0,0,0,2.628.088c.634-.1,1.064-.069,1.333.526a.41.41,0,0,0,.511.25c-.1-.584.842-.734.58-1.387.365.108.73.219,1.091.327.3.3-.284,1.014.515,1.072.776.757,1.86.845,2.782,1.283.565.1.815.838,1.483.719a31.916,31.916,0,0,1,3,1.748,11.259,11.259,0,0,1,2.916,1.94c.231.254.68-.131.842.3.423.807,1.345.4,1.94.8l.081-.346c.246.3.473.619.745.9,1.011,1.03,1.191,1.794.7,2.936-.476,1.107-1.418,1.08-2.379,1.022,0-.085,0-.169.008-.254.473-.046,1.153.169,1.368-.219.257-.457-.3-.915-.561-1.341a5.207,5.207,0,0,0-1.272-1.418,52.173,52.173,0,0,0-9.272-6.079,26.621,26.621,0,0,0-5.622-1.8c-.384-1.441-1.3-.242-1.948-.4.234.031.469.061.7.1-.354.549-.861.181-1.3.223-.012-.281-.131-.457-.434-.453a20.7,20.7,0,0,1-5.41-.914Zm10.667.48c-.054-.015-.085-.027-.115-.035.008.019.012.058.019.058A.25.25,0,0,0,79.4,344.864Z" transform="translate(-56.204 -281.664)"/><path class="b" d="M240.01,330.559c.035-.265.15-.519.446-.461,1.08.219,2.033-.5,3.093-.38a2.182,2.182,0,0,0,1.2-.415c-.868-.088-1.529.542-2.156-.042.427-.319,1.049.15,1.445-.319v.035l.2-.2-.038,0c.338-.1.672-.2,1-.3.284.38-.3.38-.234.665.534.088.907-.281,1.337-.469.219-.1.392-.292.123-.465-.134-.085-.242-.423-.6-.138a1.36,1.36,0,0,1-1.8-.4,8.995,8.995,0,0,0,3.224-1.541,2.612,2.612,0,0,0,1.014-1.349c.108-.058.188-.188.088-.242-.127-.069-.115.108-.15.192a10.289,10.289,0,0,1-6.16,2.2c-.346.031-.8.188-1.045-.28a18.475,18.475,0,0,0,3.75-.542,5.539,5.539,0,0,0,4.423-4.4,14.053,14.053,0,0,1,.722-2.8c.054.065.169.138.158.188a25.775,25.775,0,0,0-.523,3.639,1.433,1.433,0,0,1-.373.988,2.185,2.185,0,0,0-.192,1.906c.5-1.237,1.3-2.244,1.329-3.589.507.177.181.768.711.861-.223-1.1.281-2.183-.173-3.251-.088-.211.073-.4.288-.5.115.8.207,1.61.35,2.405.453,2.536-1.383,6.344-4.131,7.4a21.3,21.3,0,0,1-3.228,1.172c-.077-.119-.158-.242-.323-.231-.038,0-.077.058-.115.085l.346.173A6.435,6.435,0,0,1,240.01,330.559Zm.523-.2a.766.766,0,0,0,.807-.046A.93.93,0,0,0,240.533,330.363Zm6.578-2.528c.054-.023.123-.031.146-.069s-.015-.1-.027-.15c-.061.027-.127.054-.188.077A.972.972,0,0,0,247.111,327.835Z" transform="translate(-162.125 -266.436)"/><path class="c" d="M128.389,367.629c-.085-.108-.169-.219-.254-.327.038-.269-.1-.377-.35-.377-.065-.061-.131-.119-.2-.181.085-.073.165-.15.25-.223,1.053.234,1.36,1.23,1.921,1.94.257.323-1.2,3.493-1.622,3.547-1.495.184-2.694,1.118-4.092,1.537a6.479,6.479,0,0,1-6.648-2.267,8.731,8.731,0,0,1-1.871-5.572c.008-.423.035-.8.553-.888v.25c-.534.749-.165,1.541-.119,2.321.273.357-.1,1.164.769,1.107l.1.231c-.073.423.111.611.534.58,0,.15,0,.3.012.453.015.169-.008.423.261.357s.246-.288.138-.507a.456.456,0,0,0-.411-.3c-.038-.281.131-.661-.346-.738-.031-.365-.061-.726-.1-1.091.134,0,.269.012.4.015a9.558,9.558,0,0,0,4.277,4.669,1.075,1.075,0,0,0,1.787.246c.119-.019.238-.035.354-.05.042.123.138.223.25.154.073-.046.077-.2.115-.3l0,0c.281.054.526.042.576-.319,1.283-.991,2.724-1.883,2.371-3.873l-.015.015c.319.154.715.023.972.476.177.315.6.192.734-.254.154.123.181.538.442.342.2-.154-.046-.4-.192-.573-.169-.15-.292-.365-.549-.4C128.451,367.625,128.389,367.629,128.389,367.629ZM118.283,371.3l.184.184c.1.626.5.081.73.181.1.619.58.788,1.1.915.181.177.354.369.672.219-.2-.311-.461-.177-.68-.211-.1-.626-.584-.788-1.1-.915a.565.565,0,0,0-.361-.576c-.292-.092-.119.373-.369.4l-.184-.184c-.05-.058.081-.238-.127-.192C118.191,371.179,118.237,371.241,118.283,371.3Z" transform="translate(-85.475 -294.699)"/><path class="c" d="M172.636,373.006c.915-.3.219.48.434.649-.065.261-.142.526.215.711.115-.288.131-.519-.181-.676.315-.534.031-1.572,1.18-1.406l-.015-.015c.027.757-.234,1.629.434,2.19.692.58,1.1,1.541,2.136,1.683.357.818,1.064.488,1.664.5a4.977,4.977,0,0,0,2.106-.749,10.313,10.313,0,0,0,2.355-2.34q.086,0,.081-.081c.138-.127.265-.261.192-.473l-.012.015.288-.2c.427-.265.177-1.122.949-1.08.161.138-.453.6.215.526.469.061.346.327.265.638-.058.223-.373.565.146.688a9.455,9.455,0,0,1-1.7,2.517c-.261.027-.357.177-.307.427a7.166,7.166,0,0,1-8.607-.1c-.15-.442-.342-.453-.576-.054a1,1,0,0,1-.776-.177c.054-.4-.046-.715-.488-.822a11.812,11.812,0,0,0-.865-1.648c-.526-.907-.361-1.3.653-1.844.15.1.069.231.054.354a5.487,5.487,0,0,0-.4.446c-.181.25.065.38.2.5C172.486,373.367,172.567,373.163,172.636,373.006Z" transform="translate(-119.927 -298.958)"/><path class="b" d="M266.117,227.292a54.945,54.945,0,0,1,.354,6.505,6.835,6.835,0,0,1-.357,2.64c-.054-.1-.161-.2-.154-.292a63,63,0,0,0,0-6.432,16.672,16.672,0,0,0-.5-3.1c-.311-1.545-.6-3.086-.845-4.642-.169-1.049-.98-1.864-1.21-2.9.123-.123.246-.242.369-.365.281.427.857.922.776,1.264-.165.7.369,1.091.411,1.637.077,1.011.888,1.575,1.291,2.49.311-.265.188-.991.8-.634l-.012-.012c.492.822,1.833.68,2.494-.284.2-.292.35-.619.549-.976.261.549-.207.9-.219,1.391.742-.115.515-.868.845-1.264a2.807,2.807,0,0,1-1.844,3.155c.035-.119.234-.357.023-.338a4.17,4.17,0,0,1-2.179-.711c.365,1.36.507,1.449,1.733,1.122.146-.038.3-.061.442-.088-.242.488-.757.246-1.207.457.315.061.546.108.907.177-.173.058-.238.1-.3.1-.853-.1-1.183.177-.849,1.053a4.209,4.209,0,0,1,.134.972c-.05,0-.1-.008-.15-.008-.238-.288-.15-.676-.3-.984-.081-.158-.042-.542-.423-.3-.246.134-.15.4-.227.6-.108-.077-.215-.154-.323-.234-.023-.081-.05-.165-.073-.246-.023.019-.065.05-.061.058A1.048,1.048,0,0,0,266.117,227.292Zm.192-1.287.073.046-.077-.042c-.023-.015-.05-.027-.073-.042C266.255,225.978,266.282,225.993,266.309,226Z" transform="translate(-176.528 -204.726)"/><path class="b" d="M42.01,191.17c.219.142.111.307.031.469-1.529,2.909-2.49,6.056-3.839,9.038a6,6,0,0,0,.069,4.43c.361,1.157.784,2.294,1.226,3.42a1.631,1.631,0,0,0,.826.9c1.245.6,1.5,1.337,1.264,2.705a13.133,13.133,0,0,0,.05,4.776c-.054.05-.108.1-.165.154-.165-.088-.392.415-.484,0-.15-.657-.807-1.295-.085-2.029a.861.861,0,0,0,0-.788,6.962,6.962,0,0,1-.565-2.8,3.661,3.661,0,0,0-.438-1.818c-.315.165.138.576-.35.665-.2-.373-.073-.888-.4-1.214-.211.327.15.8-.257,1.084-.035-.05-.092-.092-.1-.146-.365-2.455-1.733-4.676-1.429-7.316a15.014,15.014,0,0,1,1.337-3.95A66.421,66.421,0,0,1,42.01,191.17Z" transform="translate(-37.317 -187.774)"/><path class="a" d="M41.213,238.874c.411-.288.046-.757.257-1.084.327.327.2.841.4,1.214.488-.088.031-.5.35-.665a3.652,3.652,0,0,1,.438,1.818,6.975,6.975,0,0,0,.565,2.8.861.861,0,0,1,0,.788c-.722.73-.061,1.372.085,2.029.092.415.319-.088.484,0,.058.492.119.988.177,1.479-.019.177-.038.357-.058.565-.327-.181.023-.657-.511-.811.557,3,.273,6.071,1.487,8.926a10.509,10.509,0,0,1-1.395-4.715,5.532,5.532,0,0,0-.073,1.495c-.127-.165-.215-.227-.219-.292-.119-2.271-.849-4.461-.922-6.736a2.016,2.016,0,0,0-.342-1.187.2.2,0,0,1,.015-.142c-.058-1.241-.111-2.478-.177-3.72-.015-.281-.2-.342-.442-.254C41.444,239.865,40.856,239.408,41.213,238.874Zm1.395,4.269q-.127-1.072-.254-2.148A3.2,3.2,0,0,0,42.608,243.143Z" transform="translate(-39.644 -216.481)"/><path class="b" d="M253.75,267.1a7.223,7.223,0,0,1-.227,2.74,17.2,17.2,0,0,1-1,4.419,48.353,48.353,0,0,1-2.79,6.071,35.4,35.4,0,0,1-4.165,5.583c-.35.369-.88.549-1.107,1.049-.373.173-.592.665-1.107.546.976-.976,2.021-1.894,2.913-2.943a33.85,33.85,0,0,0,5.007-8.181,35.629,35.629,0,0,0,2.294-9.23,1.178,1.178,0,0,1,.038-.158Z" transform="translate(-164.188 -234.467)"/><path class="b" d="M64.678,291.2c-1.164.058-1.637-.98-2.29-1.6a26.234,26.234,0,0,1-4.088-5.326c-.822-1.326-1.306-2.8-2.006-4.161a24.581,24.581,0,0,1-1.883-6.233c-.061-.288-.4-.7.169-.9a27.3,27.3,0,0,0,1.937,6.843c.872,1.76,1.683,3.539,2.7,5.233a20.133,20.133,0,0,0,3.627,4.4A14.828,14.828,0,0,0,64.678,291.2Z" transform="translate(-47.746 -238.149)"/><path class="b" d="M45.238,198.072a4.283,4.283,0,0,1,.33-3.566c1.11-1.756,1.449-3.823,2.271-5.695.165-.377.3-.73.818-.561a38.3,38.3,0,0,1-2.924,8.2A14.214,14.214,0,0,0,45.238,198.072Z" transform="translate(-42.051 -185.95)"/><path class="b" d="M241.52,185.92a2.74,2.74,0,0,1,1.291,2.013,7.561,7.561,0,0,0,.757,1.591c.757,1.345,1.86,2.44,2.682,3.735a4.551,4.551,0,0,0,1.51,1.549,7.822,7.822,0,0,1,2.017,2.2c.1.134.246.307-.042.415-.28-.069-.426-.411-.761-.377-1.487-1.506-2.886-3.089-4.234-4.73A19.526,19.526,0,0,1,241.52,185.92Z" transform="translate(-163.055 -184.542)"/><path class="b" d="M270.24,188.973c.223-.038.223-.257.35-.473a3.786,3.786,0,0,1,.653,1.249,24.3,24.3,0,0,0,1.733,4.5,3.5,3.5,0,0,1,.465,3.316,7.669,7.669,0,0,1-.753-1.783c-.173-.35-.234-.765-.438-1.087A18.807,18.807,0,0,1,270.24,188.973Z" transform="translate(-180.739 -186.13)"/><path class="b" d="M260.343,198.185c-.411-.6-.7-1.276-1.068-1.9-.553-.941-.857-2.017-1.887-2.709-.688-.465-.776-1.483-1.087-2.282a15.378,15.378,0,0,0-2.89-5.153l.008.008c0-.127-.031-.223-.188-.188l0,.008c.085-.2.05-.334-.188-.373l0,.008a.444.444,0,0,0-.242-.622c-.123-.073-.311-.111-.261-.311a.248.248,0,0,1,.365-.138,1.034,1.034,0,0,1,.365.384,42.428,42.428,0,0,1,3.316,6.052c.688,1.744,1.994,3.128,2.7,4.845C259.613,196.61,260.351,197.232,260.343,198.185Z" transform="translate(-169.84 -183.665)"/><path class="a" d="M265.278,318.292c-.215.1-.377.3-.288.5.453,1.068-.05,2.156.173,3.251-.53-.1-.2-.684-.711-.861-.027,1.345-.826,2.348-1.329,3.589a2.162,2.162,0,0,1,.192-1.906,1.433,1.433,0,0,0,.373-.988,25.234,25.234,0,0,1,.523-3.639c.008-.054-.1-.127-.158-.188a.591.591,0,0,1,.776-.538C265.243,317.589,265.255,317.957,265.278,318.292Z" transform="translate(-176.277 -265.562)"/><path class="b" d="M64.147,184.637c-.238-.008-.484-.05-.638.215-1.157,2.033-2.671,3.877-3.335,6.175a6.476,6.476,0,0,1-.976,2.425c-.058-.246-.1-.419-.138-.588a28.817,28.817,0,0,1,3.159-6.467c.423-.622.769-1.295,1.164-1.933.127-.2.315-.407.592-.33A.309.309,0,0,1,64.147,184.637Z" transform="translate(-50.705 -183.431)"/><path class="b" d="M277.649,198.785c-.45-.035-.453-.446-.573-.722-1.022-2.421-2.006-4.853-3.036-7.27-.319-.745-.745-1.449-1.1-2.179-.115-.242-.461-.434-.223-.784,1.706,2.594,2.682,5.529,3.889,8.357C276.972,197.044,277.3,197.917,277.649,198.785Z" transform="translate(-182.215 -185.718)"/><path class="a" d="M56.75,318.732a26.126,26.126,0,0,0,1.061,6.282c-.5-1.034-1.449-1.864-1.295-3.155a1.29,1.29,0,0,0-.507-1.41v1.276a6.38,6.38,0,0,1-.369-2.805v.023c.407-.023.357-.853.953-.538C56.766,318.456,56.758,318.594,56.75,318.732Z" transform="translate(-48.599 -266.076)"/><path class="b" d="M199.172,370.478q0,.086-.081.081c-.515-.15-.622.469-1.018.542l0,0c-.046-.223.165-.327.238-.492.061-.062.123-.123.181-.184s.119-.123.181-.188.115-.127.173-.192.123-.119.184-.181c.027-.069.054-.138.077-.2l-.2.081c-.061.061-.119.123-.181.184s-.127.119-.188.181-.131.119-.2.177-.119.111-.177.165l-.5.1c.665-.841,1.318-1.7,2.006-2.525.319-.384.384-.98.949-1.16-.119.619.365,1.256-.042,1.867-.772-.042-.523.815-.949,1.08a.275.275,0,0,0-.288.2l.012-.015A.363.363,0,0,0,199.172,370.478Zm.127-1c.05-.027.1-.05.146-.081,0,0-.015-.065-.031-.069a.979.979,0,0,0-.15.008C199.28,369.383,199.288,369.429,199.3,369.475Z" transform="translate(-136.054 -295.962)"/><path class="b" d="M119.025,368.059c-.134,0-.269-.012-.4-.015-.307-.684.134-1.487-.342-2.144l.15-.15,1.706,2.444a4.734,4.734,0,0,0,3.328,2.129c0,.085,0,.169-.008.254-1.687.184-2.567-1.03-3.562-2.048-.207-.211-.392-.453-.615-.646C119.041,367.679,119.1,367.982,119.025,368.059Z" transform="translate(-87.17 -295.272)"/><path class="b" d="M102.506,337.384c-.177.327-.373.081-.519-.012-2.482-1.606-5.2-2.893-7.2-5.168a1.183,1.183,0,0,1-.131-.238c.4-.065.622.25.815.484,1.28,1.572,3.07,2.428,4.734,3.466C100.985,336.4,101.742,336.892,102.506,337.384Z" transform="translate(-72.626 -274.464)"/><path class="b" d="M253.49,187.338a13.844,13.844,0,0,0,1.2,3.431,2.222,2.222,0,0,1,.238,1.472c-.1.526-.4.576-.891.211.926-.015.657-.715.476-1.08-.657-1.326-.891-2.805-1.595-4.111-.127-.238-.4-.488-.142-.811.15.085.131.334.35.35l0-.008c-.035.173-.015.319.188.373l0-.008c-.008.134.027.227.188.188Z" transform="translate(-169.922 -184.868)"/><path class="b" d="M206.231,369.271c-.519-.123-.207-.465-.146-.688.081-.311.2-.58-.265-.638.065-.5.576-.857.434-1.433.165.227,0,.507.3.757a13.924,13.924,0,0,1,.012-1.56c.085-.7-.227-.7-.722-.492,0-.4.257-.534.584-.5a.558.558,0,0,1,.519.538,6.586,6.586,0,0,1-.526,3.52.58.58,0,0,0-.2.5Z" transform="translate(-141.073 -294.631)"/><path class="c" d="M73.9,194.069c.3-.492.6-.988.907-1.479.146.065.292.127.434.192a13.5,13.5,0,0,1-2.594,3.839l-.45-.023a2.237,2.237,0,0,1,.661-1.068A1.534,1.534,0,0,0,73.9,194.069Z" transform="translate(-58.796 -188.649)"/><path class="c" d="M271.8,289.546c-.269-.027-.4-.2-.3-.438a30.9,30.9,0,0,0,2-5.379c.027-.146.2-.058.3-.031a3.752,3.752,0,0,1-.457,1.729C272.672,286.753,272.507,288.251,271.8,289.546Z" transform="translate(-181.492 -244.717)"/><path class="b" d="M85.871,324.393a18.316,18.316,0,0,1-4.511-4.023c1.483,1.256,2.97,2.509,4.446,3.769C85.86,324.186,85.848,324.3,85.871,324.393Z" transform="translate(-64.436 -267.329)"/><path class="b" d="M235.629,320.36a32.754,32.754,0,0,1-3.024,2.817c-.542.492-.976,1.172-1.825,1.214q2.294-2.006,4.588-4C235.426,320.345,235.545,320.372,235.629,320.36Z" transform="translate(-156.442 -267.323)"/><path class="b" d="M66.28,194.178c-.292.5-.515.231-.842-.008-.3-.215-.319-.265-.158-.63.523-1.168.918-2.386,1.387-3.581.115-.292.165-.665.588-.719-.48,1.207-.807,2.467-1.349,3.658C65.715,193.317,65.258,194.02,66.28,194.178Z" transform="translate(-54.474 -186.586)"/><path class="b" d="M278.54,212.05c.934,1.525.8,3.208.676,4.876-.015.223-.3.423-.45.634-.061-.065-.123-.134-.184-.2A10.667,10.667,0,0,0,278.54,212.05Z" transform="translate(-185.85 -200.631)"/><path class="a" d="M205.331,365.823c.5-.211.807-.211.722.492a13.941,13.941,0,0,0-.012,1.56c-.3-.25-.134-.526-.3-.757.142.576-.369.926-.434,1.433-.669.069-.054-.388-.215-.526.411-.615-.077-1.249.042-1.867C204.959,365.9,205.07,365.823,205.331,365.823Z" transform="translate(-140.561 -295.241)"/><path class="b" d="M41.71,244.46c.246-.088.427-.027.442.254.065,1.237.119,2.478.177,3.72-.377-.2-.373-.561-.4-.915C41.864,246.5,41.787,245.478,41.71,244.46Z" transform="translate(-40.022 -220.564)"/><path class="b" d="M44.715,220.219c-.05.019-.134.073-.15.058-.818-.757-1.061-3.424-.411-4.427A11.019,11.019,0,0,0,44.715,220.219Z" transform="translate(-41.298 -202.971)"/><path class="b" d="M220.028,335.852c-.838.311-1.441,1-2.244,1.368-.35.158-.7.3-1.057.453-.054-.15.054-.234.154-.28a27.113,27.113,0,0,0,3.516-2.282c-.061.273-.469.38-.369.742Z" transform="translate(-147.78 -276.405)"/><path class="b" d="M79.424,188.964c-.146-.065-.292-.127-.434-.192a3.024,3.024,0,0,1,1.268-2.382A11.262,11.262,0,0,1,79.424,188.964Z" transform="translate(-62.977 -184.831)"/><path class="b" d="M46.566,226.417c.584.753.907.688,1.856-.357a2.008,2.008,0,0,1-.365,1.775c-.042-.05-.088-.1-.131-.146.019-.465-.246-.361-.569-.35-.553.019-1.134-.046-1.137-.83C46.335,226.475,46.451,226.448,46.566,226.417Z" transform="translate(-42.799 -209.258)"/><path class="c" d="M66.58,206.541a5.789,5.789,0,0,0,1.637-1.641c.188.019.377.035.565.054-.619.711-1.241,1.422-1.86,2.133C66.807,206.906,66.7,206.721,66.58,206.541Z" transform="translate(-55.336 -196.228)"/><path class="b" d="M211.8,341.74a7.385,7.385,0,0,1-3.1,1.844A14.243,14.243,0,0,1,211.8,341.74Z" transform="translate(-142.846 -280.488)"/><path class="c" d="M275.6,225.87c.061.065.123.134.184.2a1.915,1.915,0,0,1-.872,1.084c-.5.4-.938.277-1.21-.315.334-.246.876.234,1.168-.284A1.841,1.841,0,0,0,275.6,225.87Z" transform="translate(-182.87 -209.141)"/><path class="c" d="M260.91,214.875c.334-.038.48.307.761.377.188.361.377.726.565,1.087-.123.123-.246.242-.369.365Q261.388,215.794,260.91,214.875Z" transform="translate(-174.994 -202.369)"/><path class="b" d="M179.141,366.44a4.676,4.676,0,0,1-2.171,1.31c-.085-.077-.165-.154-.25-.231A8.016,8.016,0,0,1,179.141,366.44Z" transform="translate(-123.154 -295.697)"/><path class="b" d="M188.79,377.432c0-.088.008-.173.012-.261a8.457,8.457,0,0,0,2.851-.081A3.015,3.015,0,0,1,188.79,377.432Z" transform="translate(-130.586 -302.255)"/><path class="b" d="M144.263,367.818c-.085.073-.165.15-.25.223a3.127,3.127,0,0,1-1.814-1.111A5.151,5.151,0,0,1,144.263,367.818Z" transform="translate(-101.899 -295.999)"/><path class="b" d="M87.423,347.927c-.234-.031-.469-.061-.7-.1.646.158,1.564-1.041,1.948.4a.7.7,0,0,1-.557-.088c-.123-.4-.4-.3-.676-.207Z" transform="translate(-67.737 -284.042)"/><path class="b" d="M241.216,182.793c-.688-.023.054.669-.388.772-.088-.154-.184-.3-.265-.465-.119-.246-.242-.6.019-.722A.447.447,0,0,1,241.216,182.793Z" transform="translate(-162.382 -182.333)"/><path class="b" d="M71.4,203.8c-.188-.019-.377-.035-.565-.054a.992.992,0,0,1,.526-.722l.45.023A.781.781,0,0,1,71.4,203.8Z" transform="translate(-57.959 -195.071)"/><path class="b" d="M56.539,317.951c-.6-.315-.546.519-.953.538a.681.681,0,0,1,.307-.834A.457.457,0,0,1,56.539,317.951Z" transform="translate(-48.545 -265.625)"/><path class="b" d="M174.478,381.23c.442.111.538.423.488.822C174.535,381.937,174.439,381.626,174.478,381.23Z" transform="translate(-121.769 -304.804)"/><path class="c" d="M88.58,348.495c.277-.092.553-.2.676.207C89.022,348.656,88.7,348.918,88.58,348.495Z" transform="translate(-68.882 -284.595)"/><path class="b" d="M177.78,383.377c.231-.4.423-.388.576.054C178.164,383.411,177.972,383.4,177.78,383.377Z" transform="translate(-123.807 -305.948)"/><path class="b" d="M141.3,366.283c-.338.077-.542-.038-.565-.4C140.967,365.965,141.27,365.938,141.3,366.283Z" transform="translate(-101 -295.352)"/><path class="a" d="M54.066,247.59c-.134-.127-.111-.242.023-.35C54.242,247.371,54.223,247.486,54.066,247.59Z" transform="translate(-47.574 -222.299)"/><path class="b" d="M201.66,383.547c-.05-.25.046-.4.307-.427A.43.43,0,0,1,201.66,383.547Z" transform="translate(-138.503 -305.968)"/><path class="a" d="M253.3,186.362c-.219-.015-.2-.265-.35-.35.035-.092.069-.181.108-.273A.44.44,0,0,1,253.3,186.362Z" transform="translate(-170.093 -184.431)"/><path class="b" d="M116.97,364.983v-.25c.238-.127.357.065.5.184-.058.046-.115.1-.169.142C117.189,365.037,117.081,365.01,116.97,364.983Z" transform="translate(-86.363 -294.62)"/><path class="b" d="M232.46,349.156c.092-.169.2-.238.357-.061A.254.254,0,0,1,232.46,349.156Z" transform="translate(-157.476 -284.952)"/><path class="b" d="M228.287,332.4c.031.169.111.369-.2.315C227.953,332.481,228.16,332.465,228.287,332.4Z" transform="translate(-154.756 -274.737)"/><path class="c" d="M249.916,347.8l-.346-.173c.038-.031.073-.085.115-.085.165-.012.246.111.323.231A.094.094,0,0,1,249.916,347.8Z" transform="translate(-168.012 -284.058)"/><path class="c" d="M176.449,369.25c.085.077.165.154.25.231-.138.085-.281.181-.392-.035C176.222,369.285,176.352,369.281,176.449,369.25Z" transform="translate(-122.883 -297.427)"/><path class="b" d="M242.677,183.691c-.319.238-.188-.069-.219-.181C242.531,183.571,242.6,183.629,242.677,183.691Z" transform="translate(-163.631 -183.058)"/><path class="c" d="M206.851,375.776a.575.575,0,0,1,.2-.5C207.155,375.514,207.039,375.66,206.851,375.776Z" transform="translate(-141.704 -301.14)"/><path class="c" d="M175.775,369.634a.2.2,0,0,1-.088.288.185.185,0,0,1-.277-.1C175.425,369.541,175.552,369.487,175.775,369.634Z" transform="translate(-122.348 -297.615)"/><path class="b" d="M118.009,365.29l.15.173-.15.15-.169-.181C117.894,365.386,117.951,365.34,118.009,365.29Z" transform="translate(-86.899 -294.989)"/><path class="b" d="M183.3,365.955c-.042.15-.131.227-.292.181C182.988,365.894,183.15,365.936,183.3,365.955Z" transform="translate(-127.025 -295.389)"/><path class="c" d="M175.018,370.153c.081.108.069.219-.061.238-.046.008-.115-.15-.177-.234A.154.154,0,0,1,175.018,370.153Z" transform="translate(-121.96 -297.95)"/><path class="c" d="M173.836,371.46c.123-.046.231-.008.227.123s-.111.169-.238.131Q173.675,371.587,173.836,371.46Z" transform="translate(-121.327 -298.776)"/><path class="b" d="M226.432,334.6c-.065.065-.134.131-.2.2C226.174,334.608,226.263,334.562,226.432,334.6Z" transform="translate(-153.63 -276.084)"/><path class="b" d="M226.913,334.108c-.065.065-.131.134-.2.2C226.682,334.147,226.709,334.043,226.913,334.108Z" transform="translate(-153.931 -275.776)"/><path class="b" d="M227.367,333.644c-.065.065-.131.135-.2.2C227.106,333.648,227.187,333.6,227.367,333.644Z" transform="translate(-154.205 -275.493)"/><path class="b" d="M227.838,333.158c-.065.065-.131.131-.192.2C227.588,333.17,227.646,333.1,227.838,333.158Z" transform="translate(-154.499 -275.191)"/><path class="d" d="M82.27,334.775c.511-.288,1.172-.33,1.5-.907.154-.269.342-.657.05-.815-.384-.2-.161.434-.453.492-.223-.154-.038-.33.012-.457a2.031,2.031,0,0,0-.315-1.921c-.392-.665-.008-1.1,1-1.087-.68.649-.361,1.08.181,1.549a2.987,2.987,0,0,1,.707,1.495c.3-.915,1.134-.7,1.729-.941v0a1.178,1.178,0,0,0,.665,1.153.461.461,0,0,1,.015.177c-.231.323-.223.53.234.607a3.645,3.645,0,0,1,1.283.4c.254.15.68.292.576.588-.134.392-.58.184-.865.108-.392-.108-.868-.065-1.149-.434-.223-.288-.53.108-.734-.138.154-.065.419-.131.269-.327-.138-.181-.281.069-.4.177-.9.488-1.971-.173-2.843.446A5.273,5.273,0,0,1,82.27,334.775Z" transform="translate(-64.997 -273.308)"/><path class="c" d="M56.2,294.927a1.744,1.744,0,0,1-1.253-1.906c.05-.127.077-.208.019-.3-.519-.849-.6-1.891-1.183-2.713l0,0c-.054-.9.669-1.737.188-2.659a2.435,2.435,0,0,1,.561,1.406c.215,2.24,1.372,4.1,2.379,6.025.181.346.373.688.561,1.034a.185.185,0,0,0-.027.173l-.369.058c.134-.5-.626-.111-.549-.557l0,0c.842-.5-.38-.3-.192-.573.015-.154.1-.346-.184-.334l-.023-.323c-.042.012-.085.027-.127.038.058.088.111.181.169.269C56.17,294.689,56.185,294.808,56.2,294.927Zm-.6-1.629c-.012-.108-.027-.211-.038-.319-.038.019-.1.038-.108.061a.2.2,0,0,0,.154.25.763.763,0,0,0,.346.788C55.943,293.694,55.92,293.433,55.6,293.3Zm-.211-.7a1.109,1.109,0,0,0-.073-.111c-.015.019-.046.042-.046.061a.867.867,0,0,0,.042.142A.577.577,0,0,0,55.39,292.6Z" transform="translate(-47.454 -246.997)"/><path class="b" d="M109.035,347.239c-.915-.638-2-1.072-2.513-2.186-.111-.242-.45-.377-.692-.573.131-.307.565.023.642-.33l0,0a5.488,5.488,0,0,1,1.76,1.087c.9.615,1.768,1.28,2.686,1.864.476.3.6.6.292,1.068a1.368,1.368,0,0,1-.7-.657C110.087,346.894,109.453,346.8,109.035,347.239Z" transform="translate(-79.504 -281.972)"/><path class="b" d="M78.968,344.833c0-.131,0-.261.008-.392l.25-.088c1.345.058,2.694.1,4.038.192.242.015.415.077.442-.234l.361-.2.042-.05a3.075,3.075,0,0,1,1.426.457c.261.653-.68.8-.58,1.387a.415.415,0,0,1-.511-.25c-.269-.6-.7-.63-1.333-.526a8.909,8.909,0,0,1-2.628-.088H82.6c0-.073,0-.146,0-.215H78.96Z" transform="translate(-62.959 -281.917)"/><path class="b" d="M132.25,379.737c-.05.361-.3.373-.576.319-.173-.515-.619-.3-.93-.292a4.709,4.709,0,0,1-2.275-.542.986.986,0,0,1-.649-.757c.964.061,1.8.8,2.774.549a5.429,5.429,0,0,0,2.494-1.445c.054.941-.6,1.349-.991,1.875C131.851,379.776,132.154,379.668,132.25,379.737Z" transform="translate(-93.044 -302.55)"/><path class="b" d="M93.354,335.082a.542.542,0,0,0-.015-.177c-.027-.5-.1-.964-.665-1.153v0c-.065-.438-.557-.576-.684-.968.05-.05.1-.1.154-.15a5.263,5.263,0,0,1,2.221,1.794,10.253,10.253,0,0,0,2.5,1.894l-.05.05c-1.007.158-1.556-.722-2.34-1.064A2.19,2.19,0,0,0,93.354,335.082Z" transform="translate(-70.982 -274.878)"/><path class="b" d="M103.68,349.184c-.669.119-.918-.622-1.483-.719a4.063,4.063,0,0,0-2.782-1.283c-.8-.058-.215-.776-.515-1.072a12.459,12.459,0,0,1,4.7,2.736C103.672,348.911,103.657,349.069,103.68,349.184Z" transform="translate(-75.237 -283.179)"/><path class="c" d="M79.915,343.62c-.027.311-.2.25-.442.234-1.345-.088-2.69-.131-4.035-.192-.807-.065-1.614-.127-2.421-.192l-.207-.53a25.206,25.206,0,0,0,4.772.465A10.78,10.78,0,0,1,79.915,343.62Z" transform="translate(-59.172 -281.227)"/><path class="b" d="M125.289,358.82a11.45,11.45,0,0,1-3.439-2.69,19.494,19.494,0,0,1,3.65,2.486C125.431,358.681,125.358,358.751,125.289,358.82Z" transform="translate(-89.368 -289.348)"/><path class="c" d="M114.17,351.753c.419-.442,1.057-.346,1.472.28a1.355,1.355,0,0,0,.7.657c.2.088.473.234.369.43-.119.227-.4.111-.6-.027-.4-.273-.8-.534-1.207-.8a.321.321,0,0,0-.423-.311C114.374,351.907,114.27,351.83,114.17,351.753Z" transform="translate(-84.639 -286.485)"/><path class="b" d="M78.711,342.294a5.017,5.017,0,0,0,1.472.161,9.707,9.707,0,0,1-3.693.065l.042-.065A7.164,7.164,0,0,1,78.711,342.294Z" transform="translate(-61.438 -280.827)"/><path class="b" d="M130.941,364.685l-.081.346c-.6-.392-1.514.012-1.94-.8a1.728,1.728,0,0,1,.876-.165.612.612,0,0,0,.676.377C130.787,364.22,130.837,364.5,130.941,364.685Z" transform="translate(-93.721 -294.237)"/><path class="b" d="M133.137,384.146a1.076,1.076,0,0,1-1.787-.246C131.946,383.985,132.541,384.065,133.137,384.146Z" transform="translate(-95.218 -306.448)"/><path class="c" d="M50.322,259.532a1.317,1.317,0,0,1-.035-1.8C50.46,258.326,50.041,258.937,50.322,259.532Z" transform="translate(-45.094 -228.759)"/><path class="b" d="M58.872,294.16c.2.4.4.8.6,1.2C58.879,295.178,58.849,294.686,58.872,294.16Z" transform="translate(-50.586 -251.19)"/><path class="b" d="M74.113,342.09a2.391,2.391,0,0,1-1.483-.5c.519.1,1.091,0,1.525.434Z" transform="translate(-59.061 -280.395)"/><path class="c" d="M131.843,363.71a.609.609,0,0,1-.676-.377c-.008-.1-.015-.2-.027-.3.054-.05.108-.1.158-.154C131.559,363.1,131.924,363.26,131.843,363.71Z" transform="translate(-95.088 -293.505)"/><path class="c" d="M50.576,265.174a2.112,2.112,0,0,1,.031-1.814A6.989,6.989,0,0,1,50.576,265.174Z" transform="translate(-45.365 -232.225)"/><path class="b" d="M150.19,373.14c.146.173.4.423.192.573-.265.2-.292-.219-.442-.342C150.021,373.3,150.105,373.221,150.19,373.14Z" transform="translate(-106.664 -299.822)"/><path class="b" d="M106.249,343.254c-.2.019-.411.042-.469-.254.25-.069.373.065.469.254Z" transform="translate(-79.473 -281.253)"/><path class="b" d="M137.275,384.011c-.035.1-.042.254-.115.3-.111.069-.207-.031-.25-.154C136.987,383.992,137.125,383.984,137.275,384.011Z" transform="translate(-98.641 -306.509)"/><path class="b" d="M147.43,370.29c.254,0,.388.108.35.377A.342.342,0,0,1,147.43,370.29Z" transform="translate(-105.119 -298.067)"/><path class="b" d="M114.97,352.775a.32.32,0,0,1,.423.311A.354.354,0,0,1,114.97,352.775Z" transform="translate(-85.132 -287.277)"/><path class="b" d="M91.852,343.953c-.081-.023-.161-.042-.242-.065.027-.031.061-.092.073-.088a2.089,2.089,0,0,1,.207.1A.435.435,0,0,1,91.852,343.953Z" transform="translate(-70.748 -281.756)"/><path class="b" d="M127.221,379.182c.05.073.035.127-.054.127-.042,0-.115-.042-.119-.077s.035-.1.058-.142A1.216,1.216,0,0,1,127.221,379.182Z" transform="translate(-92.568 -303.486)"/><path class="b" d="M91.692,332.574c-.077-.065-.261-.1-.138-.234.085-.1.215-.019.3.085C91.8,332.474,91.746,332.524,91.692,332.574Z" transform="translate(-70.688 -274.672)"/><path class="c" d="M130.8,362.8l.215-.2a.15.15,0,0,1,.073.111c-.054.05-.108.1-.158.154A.183.183,0,0,1,130.8,362.8Z" transform="translate(-94.879 -293.332)"/><path class="b" d="M149,372.124l.061,0c-.019.046-.038.088-.058.134C149,372.208,149,372.166,149,372.124Z" transform="translate(-106.086 -299.194)"/><path class="c" d="M145.327,372.953l-.127-.058c.134-.123.085.031.111.073C145.311,372.972,145.327,372.953,145.327,372.953Z" transform="translate(-103.746 -299.643)"/><path class="c" d="M148.555,373.918l-.015-.058.042,0Z" transform="translate(-105.802 -300.266)"/><path class="b" d="M104.58,342.23c.046.031.088.061.134.088-.019.019-.054.058-.061.05-.042-.027-.081-.061-.123-.092A.545.545,0,0,0,104.58,342.23Z" transform="translate(-78.703 -280.789)"/><path class="b" d="M69.024,318.127l-.184-.184c.054-.046.108-.1.161-.142.054.065.1.131.158.2C69.117,318.038,69.071,318.081,69.024,318.127Z" transform="translate(-56.727 -265.747)"/><path class="b" d="M107.188,343.854c-.119,0-.192-.046-.188-.181l0,0c.115.008.188.058.181.188C107.184,343.862,107.188,343.854,107.188,343.854Z" transform="translate(-80.224 -281.676)"/><path class="b" d="M69.454,318.3c.019.069.035.138.054.211-.061-.027-.123-.054-.188-.077C69.366,318.388,69.412,318.346,69.454,318.3Z" transform="translate(-57.023 -266.055)"/><path class="b" d="M197.425,350.025l-.215-.215a8.715,8.715,0,0,1,1.752-1.418c.43-.261,1.249-.354,1.011-1.241-.019-.069.184-.223.3-.307q2.179-1.562,4.365-3.109a1.472,1.472,0,0,1,.423-.134l.038.038c-.407.811.438-.019.361.361a16.123,16.123,0,0,1-6.186,4.642,3.055,3.055,0,0,0-1.068.834C198,349.725,197.829,350.044,197.425,350.025Z" transform="translate(-135.771 -281.633)"/><path class="d" d="M245.63,315.688a5.11,5.11,0,0,0,2.817-2.248c.327.6.046,1.2.165,1.768-.077.15-.154.3-.234.45-.719-.215-.911.43-1.237.8-.377.423-.738.588-1.233.238a.462.462,0,0,0,.457-.354.125.125,0,0,0-.154-.158c-.246.042-.323.234-.365.45-.257-.008-.469.288-.8.108C245.088,316.295,245.6,316.114,245.63,315.688Z" transform="translate(-165.229 -263.062)"/><path class="b" d="M185.14,380.07c-.6-.012-1.306.323-1.664-.5a9.59,9.59,0,0,1-1.226-2.271c.615.311.991.788,1.522,1.064a2.789,2.789,0,0,0,2.69.231,4.415,4.415,0,0,1,.972-.211c.069.069.142.134.211.2a3.388,3.388,0,0,1-1.987.964C185.336,379.629,185.043,379.629,185.14,380.07Z" transform="translate(-126.559 -302.384)"/><path class="b" d="M222.136,333.927c.469.123.622-.3.834-.538a9.371,9.371,0,0,1,2.06-1.4,1.307,1.307,0,0,1-.542.876,4.252,4.252,0,0,0-1.31,2.121c-.941-.646-1.333.392-1.971.661a1.769,1.769,0,0,1-1.076.257c.653-.734,1.775-.911,2.006-1.979Z" transform="translate(-149.884 -274.484)"/><path class="b" d="M228.756,344.364c.038.346.288.392.53.3.945-.373,1.879.061,2.824-.027-.646.457-1.418.054-2.086.419h2.148c0,.062,0,.123,0,.184H226.42c.338-.238.68-.3.692-.665C227.653,344.445,228.13,343.8,228.756,344.364Z" transform="translate(-153.757 -281.963)"/><path class="b" d="M216.761,347.106c-.092.031-.181.061-.273.1a4.136,4.136,0,0,0-2.7,1.26c-.63.315-1.126.93-1.921.884a12.788,12.788,0,0,1,5.187-3.216c.092.4-.434.576-.33.972C216.727,347.1,216.761,347.106,216.761,347.106Z" transform="translate(-144.798 -283.191)"/><path class="b" d="M242.049,342.325c.054.111.111.219.165.33q-1.867-.012-3.735-.027a2.014,2.014,0,0,1-.269-.038A18.087,18.087,0,0,1,242.049,342.325Z" transform="translate(-161.017 -280.842)"/><path class="b" d="M173.489,373.821c-.073.158-.15.361-.361.181-.134-.115-.38-.246-.2-.5a4.905,4.905,0,0,1,.4-.446C173.977,373.194,173.439,373.567,173.489,373.821Z" transform="translate(-120.78 -299.773)"/><path class="b" d="M175.566,376.765c.311.158.3.388.181.676-.357-.181-.281-.446-.215-.711Z" transform="translate(-122.388 -302.033)"/><path class="b" d="M243.205,324.89c.054.012.1.027.158.038-.069.085-.134.177-.211.254-.058.061-.111.038-.111-.046C243.04,325.024,243.052,324.909,243.205,324.89Z" transform="translate(-163.991 -270.112)"/><path class="b" d="M248.578,342.849l.465-.219c.015.077.065.169.038.223-.115.246-.338.177-.542.154A.676.676,0,0,0,248.578,342.849Z" transform="translate(-167.377 -281.036)"/><path class="b" d="M239.6,328.839c.085-.158.131-.361.369-.357l-.012-.012c-.019.223-.165.315-.361.365Z" transform="translate(-161.873 -272.317)"/><path class="b" d="M217.66,343.2a.34.34,0,0,1,.3-.254c.012,0,.05.046.046.065a.287.287,0,0,1-.307.231S217.66,343.2,217.66,343.2Z" transform="translate(-148.363 -281.232)"/><path class="b" d="M195.73,379.791c.115-.069.227-.142.342-.211.042.046.085.088.127.134-.085.1-.173.188-.257.284C195.872,379.926,195.8,379.861,195.73,379.791Z" transform="translate(-134.86 -303.788)"/><path class="b" d="M239.6,329.42l0,0Z" transform="translate(-161.873 -272.902)"/><path class="b" d="M241.976,326.475c.015-.023.035-.046.05-.065l-.058.058S241.976,326.475,241.976,326.475Z" transform="translate(-163.331 -271.048)"/><path class="b" d="M175.605,371.925l-.015-.065.054.008Z" transform="translate(-122.458 -299.034)"/><path class="c" d="M178.762,372.948c.019-.046.038-.092.061-.138.1.111.019.123-.073.127C178.75,372.933,178.762,372.948,178.762,372.948Z" transform="translate(-124.404 -299.619)"/><path class="b" d="M240.552,328.278c.015-.046.027-.092.042-.138.142.111-.015.092-.054.127Z" transform="translate(-162.451 -272.114)"/><path class="b" d="M198.248,378.078c0-.127.058-.188.181-.184l0,0c-.061.061-.123.123-.184.181Z" transform="translate(-136.405 -302.747)"/><path class="b" d="M197.76,378.537a.164.164,0,0,1,.192-.173l0,0-.177.188Z" transform="translate(-136.11 -303.037)"/><path class="b" d="M197.15,378.951c.077-.042.154-.088.234-.131l.012.012c-.05.073-.1.142-.15.215A1.13,1.13,0,0,1,197.15,378.951Z" transform="translate(-135.734 -303.32)"/><path class="b" d="M196.62,379.328c.069-.054.138-.1.2-.158.031.031.061.065.1.1l-.173.2C196.7,379.416,196.662,379.37,196.62,379.328Z" transform="translate(-135.408 -303.535)"/><path class="b" d="M241.443,327.04c-.008.023-.015.05-.023.073a.5.5,0,0,0,.031-.065Z" transform="translate(-162.993 -271.436)"/><path class="b" d="M241.488,326.752l.184-.184-.008-.008-.184.184Z" transform="translate(-163.03 -271.141)"/><path class="b" d="M219.338,342.38c.015.015.035.031.05.046-.019.012-.038.038-.058.035s-.035-.027-.05-.046A.208.208,0,0,0,219.338,342.38Z" transform="translate(-149.361 -280.882)"/><path class="c" d="M52.61,292.5c-.015.257-.031.515-.054.93a3,3,0,0,1-.672-2.029l0,0c.619.119.327.841.73,1.1Z" transform="translate(-46.284 -249.491)"/><path class="c" d="M48.307,258.949c-.058-.492-.119-.988-.177-1.479.054-.05.108-.1.165-.154.25-.1.15-.35.219-.526C48.595,257.524,49,258.289,48.307,258.949Z" transform="translate(-43.975 -228.18)"/><path class="a" d="M73.35,344.32c.807.065,1.614.127,2.421.192l-.25.088-1.833-.035Z" transform="translate(-59.504 -282.076)"/><path class="a" d="M51.584,287.54a.781.781,0,0,1-.354-.93C51.35,286.921,51.469,287.232,51.584,287.54Z" transform="translate(-45.857 -246.541)"/><path class="a" d="M63.691,311.25c.108.077.219.158.327.238l-.012-.012c.054.219.108.438.188.776a1.221,1.221,0,0,1-.615-.9A.739.739,0,0,0,63.691,311.25Z" transform="translate(-53.488 -261.714)"/><path class="c" d="M67.28,343.163c-.165-.027-.377.035-.442-.192-.012-.038.085-.15.146-.161.242-.042.3.134.33.319A.294.294,0,0,0,67.28,343.163Z" transform="translate(-55.494 -281.143)"/><path class="a" d="M62.728,334.2c-.127-.042-.3-.035-.281-.238a.162.162,0,0,1,.1-.111c.192-.035.223.131.288.25A1.325,1.325,0,0,0,62.728,334.2Z" transform="translate(-52.79 -275.628)"/><path class="c" d="M51.636,290.77a.285.285,0,0,1-.142-.354c.008-.019.046-.031.069-.046.023.134.046.269.065.4C51.629,290.773,51.636,290.77,51.636,290.77Z" transform="translate(-46.036 -248.857)"/><path class="a" d="M66.142,315.17v.369l.008-.008a.285.285,0,0,1-.3-.269c0-.023.192-.058.292-.092Z" transform="translate(-54.886 -264.127)"/><path class="c" d="M69.283,345.579a.283.283,0,0,1-.369.134c-.023-.008-.035-.046-.054-.069.134-.027.269-.058.407-.085Z" transform="translate(-56.739 -282.84)"/><path class="a" d="M62.34,309.868l.369-.058C62.636,310.148,62.5,310.087,62.34,309.868Z" transform="translate(-52.725 -260.827)"/><path class="a" d="M59.93,306.145c.284-.012.2.181.184.334l-.065,0-.065.012c-.012-.119-.023-.238-.038-.357Z" transform="translate(-51.241 -258.561)"/><path class="c" d="M60.8,308.4c-.027-.023-.05-.046-.077-.073.015,0,.035,0,.042.015a.459.459,0,0,1,.031.061S60.8,308.4,60.8,308.4Z" transform="translate(-51.727 -259.916)"/><path class="a" d="M63.5,311.22c-.019-.065-.038-.131-.054-.2.054.031.108.061.165.088C63.577,311.147,63.542,311.185,63.5,311.22Z" transform="translate(-53.408 -261.572)"/><path class="a" d="M65.4,314.365c-.019.019-.035.038-.054.058-.015-.023-.046-.042-.042-.065s.035-.038.05-.058C65.365,314.323,65.38,314.342,65.4,314.365Z" transform="translate(-54.547 -263.592)"/><path class="a" d="M66.6,316.122c.061.061.119.123.181.184l.012-.012a.162.162,0,0,1-.184-.177S66.6,316.122,66.6,316.122Z" transform="translate(-55.348 -264.711)"/><path class="a" d="M67.07,316.585a.385.385,0,0,1,.069.035c.012.008,0,.035.008.05l-.065-.1S67.07,316.585,67.07,316.585Z" transform="translate(-55.637 -264.989)"/><path class="b" d="M45.7,229.978c-.676.327-1.268.853-2.113.749-.334-.038-.127.219-.1.361l.008-.012a3.2,3.2,0,0,1-1.944-3.185c.434.315.2,1.007.726,1.33.307-.492-.25-.9,0-1.391.442.653.73,1.4,1.552,1.675a1.443,1.443,0,0,0,1.929-.719c.269.476-.069.818-.077,1.2A.018.018,0,0,0,45.7,229.978Z" transform="translate(-39.917 -210.348)"/><path class="b" d="M74.967,196.44a1.535,1.535,0,0,1-1.037,1.46A2.771,2.771,0,0,1,74.967,196.44Z" transform="translate(-59.861 -191.019)"/><path class="b" d="M47.956,230.508l.918-.208c.042.046.088.1.131.146-.311.573-.772.446-1.245.261C47.825,230.638,47.891,230.573,47.956,230.508Z" transform="translate(-43.747 -211.869)"/><path class="b" d="M49.046,236.971h-.6c.261-.238.43-.177.584.012C49.038,236.983,49.046,236.971,49.046,236.971Z" transform="translate(-44.172 -215.881)"/><path class="b" d="M46.63,236.3c.088.019.173.042.261.061-.138.169-.184.012-.25-.069C46.638,236.285,46.63,236.3,46.63,236.3Z" transform="translate(-43.051 -215.556)"/><path class="b" d="M47.194,230.769l-.354-.207c.058-.054.119-.108.177-.161.123.058.246.111.369.169C47.324,230.634,47.259,230.7,47.194,230.769Z" transform="translate(-43.181 -211.93)"/><path class="b" d="M45.642,229.447c-.081-.058-.269-.085-.158-.219.088-.1.211-.012.269.111A.99.99,0,0,0,45.642,229.447Z" transform="translate(-42.325 -211.181)"/><path class="b" d="M46.573,230.34c-.058-.061-.115-.123-.173-.188a.847.847,0,0,0,.123-.111c.077.046.154.092.227.138C46.692,230.232,46.631,230.286,46.573,230.34Z" transform="translate(-42.91 -211.708)"/><path class="b" d="M46.051,229.59c.061.058.123.119.184.177a.567.567,0,0,1-.123.111c-.058-.061-.115-.123-.173-.181C45.978,229.659,46.013,229.625,46.051,229.59Z" transform="translate(-42.626 -211.431)"/><path class="c" d="M273.268,243.43c.05,0,.1,0,.15.008a4.655,4.655,0,0,1,.046,2.893,1.447,1.447,0,0,0-.223.949c-.046,1.1.357,2.163.261,3.285.2-.311.161-.722.523-.915a4.624,4.624,0,0,1-.108,1.237,13.782,13.782,0,0,0,.092,4.423L274,255.3c-.023.238-.046.473-.069.711-.442.142-.277.492-.269.784-.046.365.108.765-.188,1.087-.019-.638-.038-1.276-.054-1.914,0-.085,0-.173,0-.257.008-.469.292-.907.173-1.391,0-.138,0-.28,0-.419a3.31,3.31,0,0,0-.211-1.948c-.261.35.058.8-.25,1.122a13.705,13.705,0,0,1,.058-3.174,1.008,1.008,0,0,0,.027-.45,8.889,8.889,0,0,1-.111-4.108l-.015.012C273.411,244.74,273.188,244.068,273.268,243.43Z" transform="translate(-182.388 -219.953)"/><path class="b" d="M274.528,254.29c-.361.192-.319.6-.523.915.1-1.122-.307-2.183-.261-3.285a1.47,1.47,0,0,1,.223-.949c.488.119.3.507.33.815.061.707-.146,1.46.361,2.09l.038.046c-.012.061-.023.123-.038.181-.054.061-.108.123-.161.188Z" transform="translate(-182.895 -224.596)"/><path class="b" d="M259.847,202.206c-.146-.519-.546-.98-.38-1.706.884.891.626,2.186,1.372,3.016a1.686,1.686,0,0,1-.991-1.137l-.012.012c.038-.046.077-.088.119-.134-.038-.019-.077-.042-.115-.061Z" transform="translate(-174.082 -193.519)"/><path class="b" d="M270.9,223.2c-.507-.338-1.23-.6-.519-1.41C270.564,222.278,270.733,222.739,270.9,223.2Z" transform="translate(-180.645 -206.629)"/><path class="c" d="M276.2,244.509c.307-.234.05-.638.415-1.1-.188.988.208,1.8-.277,2.559A3.991,3.991,0,0,0,276.2,244.509Z" transform="translate(-184.409 -219.941)"/><path class="b" d="M272.862,230.479c.023-.154-.081-.45.207-.357.35.111.776.1,1.049.457-.476.342-.861-.019-1.268-.111Z" transform="translate(-182.346 -211.748)"/><path class="b" d="M270.88,229.424l.042-.054a1.37,1.37,0,0,1,.1.108c.008.012-.019.046-.035.069C270.953,229.508,270.918,229.466,270.88,229.424Z" transform="translate(-181.133 -211.296)"/><path class="b" d="M277.051,230.437a1.1,1.1,0,0,1-.188.154c-.088.042-.181,0-.165-.1.012-.069.1-.134.165-.181C276.982,230.23,276.985,230.353,277.051,230.437Z" transform="translate(-184.714 -211.86)"/><path class="b" d="M260.323,205.1c-.042-.019-.085-.035-.123-.054l.123-.123-.012-.008v.2S260.323,205.1,260.323,205.1Z" transform="translate(-174.557 -196.241)"/><path class="a" d="M275.544,246.082c.012-.061.023-.123.038-.181a.5.5,0,0,1,.676.3,13.782,13.782,0,0,1,.069,1.445c.569-3.235.784-6.517,1.679-9.7-.315,2.555-.742,5.107-.911,7.67a32.438,32.438,0,0,1-1.595,7.666c-.265-.169-.081-.45-.188-.646.023-.238.046-.473.069-.711.45-.853.035-1.737.119-2.6a11.19,11.19,0,0,0-.1,2.609,14,14,0,0,1-.092-4.423,4.624,4.624,0,0,0,.108-1.237l-.023,0C275.437,246.209,275.491,246.148,275.544,246.082Z" transform="translate(-183.777 -216.573)"/><path class="c" d="M261.095,300.531q1.014-1.908,2.025-3.816c.784.046.684-.707,1.045-1.145a3.06,3.06,0,0,1-.557,1.756,3.238,3.238,0,0,0-.392,1.514,1.873,1.873,0,0,1-1.13,1.806c-.288.115-.292.434-.461.634-.219.265-.284.692-.738.719-.031-.327.388-.542.227-.9l-.008.012c.042-.015.119-.019.123-.042.023-.1-.019-.158-.127-.158C261.1,300.777,261.1,300.654,261.095,300.531Zm.922-.538a1.683,1.683,0,0,0,.63-1.41c-.207.473-.638.853-.615,1.429-.046,0-.092,0-.138,0,.012.038.027.073.038.111C261.959,300.081,261.986,300.039,262.017,299.993Zm.88-1.741c-.023-.054-.042-.1-.065-.158-.019.023-.054.05-.05.073a.652.652,0,0,0,.058.158C262.859,298.3,262.878,298.279,262.9,298.252Z" transform="translate(-174.979 -252.059)"/><path class="a" d="M272.611,276.982c.3-.323.142-.722.188-1.087.765.592.1,1.214.038,1.825-.027.108-.05.219-.077.327l.012-.015c-.307.25-.265.661-.438.949-.207.342-.158-.085-.231-.154.123-.1.177-.211.061-.354-.069.077-.142.15-.211.227a.088.088,0,0,0-.1.058.3.3,0,0,1-.3-.434c.365-1.276-.065-2.655.626-3.873.1.065.1.373.373.365,0,.085,0,.173,0,.257a7.374,7.374,0,0,0-.653,2.459c.319.346.45.127.519-.207a.345.345,0,0,0,.192-.365Z" transform="translate(-181.535 -239.054)"/><path class="c" d="M271.751,284.5a.086.086,0,0,1,.1-.058c.05.042.1.085.146.127.077.069.027.5.231.154.173-.284.131-.7.438-.949-.027,1.595-.8,2.97-1.249,4.626A13.589,13.589,0,0,1,271.751,284.5Z" transform="translate(-181.432 -244.793)"/><path class="a" d="M278.6,245.023a15.083,15.083,0,0,1,.665-5.483C278.976,241.273,279.087,243.048,278.6,245.023Z" transform="translate(-185.848 -217.558)"/><path class="a" d="M259.639,309.94c.165.361-.257.576-.227.9h.031c-.142,0-.184.1-.207.223-.227.3-.457.607-.684.907l-.061-.065c.008-.369.334-.669.231-1.061l-.008.012c.215-.05.223-.2.192-.38l-.008.012c.138.008.2-.065.192-.192l-.012.012c.131,0,.188-.069.192-.192l-.008.012C259.389,310.067,259.516,310.005,259.639,309.94Z" transform="translate(-173.504 -260.907)"/><path class="a" d="M285.376,228.362c-.042-.061-.1-.1-.1-.138a1.506,1.506,0,0,1,.058-.254c.031.038.081.073.081.111A1.131,1.131,0,0,1,285.376,228.362Z" transform="translate(-190 -210.434)"/><path class="c" d="M274.72,283.287c.027-.108.05-.219.077-.327C274.927,283.106,274.866,283.206,274.72,283.287Z" transform="translate(-183.498 -244.294)"/><path class="a" d="M258.038,315.125c-.142.2-.269.2-.38-.027l-.008.012c.108-.015.219-.031.327-.05Z" transform="translate(-172.987 -264.06)"/><path class="c" d="M270.49,296.726c.023-.081.042-.161.065-.246l.069.046c-.042.065-.088.134-.134.2Z" transform="translate(-180.893 -252.619)"/><path class="c" d="M270.268,297.12c-.023.081-.046.161-.069.238l-.069-.046c.046-.065.092-.131.138-.192Z" transform="translate(-180.672 -253.013)"/><path class="a" d="M284.944,229.83a.224.224,0,0,1,.019.081c-.023.092-.058.1-.088.023a.116.116,0,0,1,.015-.085C284.894,229.838,284.925,229.838,284.944,229.83Z" transform="translate(-189.749 -211.579)"/><path class="c" d="M260.44,312.5c.023-.115.065-.215.207-.223C260.578,312.357,260.509,312.43,260.44,312.5Z" transform="translate(-174.705 -262.348)"/><path class="a" d="M216.87,350.17a4.153,4.153,0,0,1,2.7-1.26C218.853,349.725,217.769,349.744,216.87,350.17Z" transform="translate(-147.877 -284.903)"/><path class="a" d="M247.048,344.631H244.9c.776.069,1.522-.438,2.305-.158l.035,0c-.111.019-.227.035-.2.2Z" transform="translate(-165.136 -282.118)"/><path class="a" d="M224.538,348.664l-.038,0h.1A.4.4,0,0,0,224.538,348.664Z" transform="translate(-152.575 -284.749)"/><path class="a" d="M192.04,364.135c.115.008.227.019.342.027-.023.042-.038.108-.073.119-.142.05-.219-.031-.254-.161C192.052,364.12,192.04,364.135,192.04,364.135Z" transform="translate(-132.588 -294.268)"/><path class="a" d="M194.265,365.1c-.077.015-.2.065-.223.038-.073-.1.042-.123.108-.154C194.192,365.018,194.227,365.057,194.265,365.1Z" transform="translate(-133.806 -294.798)"/><path class="c" d="M271.35,240.686c.077-.2-.019-.461.227-.6a7.462,7.462,0,0,1,.48,2.559c-.092,0-.184-.012-.277-.015Q271.561,241.66,271.35,240.686Z" transform="translate(-181.423 -217.897)"/><path class="b" d="M273.417,266.732c.307-.315-.012-.768.25-1.122a3.3,3.3,0,0,1,.211,1.948C273.428,267.447,273.367,267.124,273.417,266.732Z" transform="translate(-182.686 -233.611)"/><path class="b" d="M272.47,246.71c.092,0,.184.012.277.015a.832.832,0,0,1,.058.649l.015-.012c-.1.265-.2.53-.35.907Z" transform="translate(-182.112 -221.973)"/><path class="b" d="M257.964,313.367c-.108.015-.219.031-.327.05a1.286,1.286,0,0,1,.553-1.107C258.3,312.7,257.967,313,257.964,313.367Z" transform="translate(-172.974 -262.366)"/><path class="b" d="M264.18,295.214c.142-.319.288-.634.5-1.114a1.214,1.214,0,0,1-.357,1.26Z" transform="translate(-177.008 -251.153)"/><path class="b" d="M260.858,309.041c-.127.065-.254.127-.377.192a.777.777,0,0,1,.357-.753c0,.123.008.25.012.373v.2Z" transform="translate(-174.723 -260.008)"/><path class="b" d="M259.262,311.35c.031.173.023.327-.192.38C259.135,311.6,259.2,311.477,259.262,311.35Z" transform="translate(-173.861 -261.775)"/><path class="b" d="M264.092,297.15c-.1.085-.188.173-.284.257l.008.008a.368.368,0,0,1,.127-.415Z" transform="translate(-176.77 -252.939)"/><path class="b" d="M263.682,298.06a.355.355,0,0,1-.035.077c-.008.012-.038,0-.058.008l.1-.077Z" transform="translate(-176.645 -253.592)"/><path class="b" d="M260.212,310.41c0,.123-.061.2-.192.192C260.028,310.483,260.081,310.406,260.212,310.41Z" transform="translate(-174.446 -261.196)"/><path class="b" d="M259.742,310.88c0,.131-.058.2-.192.192Z" transform="translate(-174.157 -261.486)"/><path class="a" d="M100.24,348.9a4.063,4.063,0,0,1,2.782,1.283C102.1,349.745,101.016,349.657,100.24,348.9Z" transform="translate(-76.062 -284.897)"/><path class="b" d="M77.451,345.946c-.261.3-.6.154-.941.165.288-.369.63-.192.945-.158C77.459,345.954,77.451,345.946,77.451,345.946Z" transform="translate(-61.45 -283.038)"/><path class="b" d="M97.5,346.755a.25.25,0,0,1-.1.023c-.008,0-.012-.038-.019-.058C97.411,346.732,97.441,346.739,97.5,346.755Z" transform="translate(-74.301 -283.554)"/><path class="c" d="M241.37,348.518a.943.943,0,0,1,.807-.046A.766.766,0,0,1,241.37,348.518Z" transform="translate(-162.963 -284.591)"/><path class="c" d="M258.379,341.775l-.069-.138c.061-.027.127-.054.188-.077.012.05.046.115.027.15S258.429,341.752,258.379,341.775Z" transform="translate(-173.393 -280.377)"/><path class="a" d="M261.33,333.749c.035-.081.023-.257.15-.192.1.054.023.184-.088.242C261.4,333.8,261.33,333.749,261.33,333.749Z" transform="translate(-175.253 -275.441)"/><path class="c" d="M250.482,344.786c-.031-.161.085-.177.2-.2Z" transform="translate(-168.57 -282.243)"/><path class="a" d="M116.832,365.531c.058.061.115.119.169.181.476.657.035,1.46.342,2.144.031.365.061.726.1,1.091-.061.054-.123.1-.188.158-.035-.077-.069-.154-.108-.227-.165-.43.038-1.118-.769-1.107-.042-.776-.415-1.572.119-2.321C116.613,365.477,116.72,365.5,116.832,365.531Z" transform="translate(-85.894 -295.087)"/><path class="b" d="M116.65,371.49c.807-.012.6.672.769,1.107C116.55,372.654,116.927,371.847,116.65,371.49Z" transform="translate(-86.166 -298.806)"/><path class="b" d="M126.153,383.555c-.511-.127-.991-.3-1.1-.915l-.008.008c.511.127,1,.288,1.1.915Z" transform="translate(-91.338 -305.672)"/><path class="b" d="M123.9,381.7c-.234-.1-.626.446-.73-.181l0,0c.25-.019.077-.484.369-.4a.574.574,0,0,1,.361.576Z" transform="translate(-90.181 -304.737)"/><path class="b" d="M120.31,376.47a.46.46,0,0,1,.411.3c.108.223.134.438-.138.507s-.246-.188-.261-.357c-.015-.146-.008-.3-.012-.45Z" transform="translate(-88.42 -301.873)"/><path class="b" d="M118.905,374.708c.061-.054.123-.1.188-.158.476.077.307.453.346.738h0C119.016,375.318,118.832,375.134,118.905,374.708Z" transform="translate(-87.545 -300.691)"/><path class="b" d="M127.91,385.028c.219.035.48-.1.68.211-.319.154-.5-.042-.672-.219C127.914,385.02,127.91,385.028,127.91,385.028Z" transform="translate(-93.1 -307.137)"/><path class="b" d="M122.484,381.376c-.046-.061-.088-.123-.134-.188.207-.046.077.135.127.192C122.477,381.384,122.484,381.376,122.484,381.376Z" transform="translate(-89.676 -304.773)"/><path class="b" d="M122.868,381.874l-.184-.184,0,0,.184.184Z" transform="translate(-89.879 -305.087)"/><path class="a" d="M192.5,377.774l.173-.2c.05-.073.1-.142.15-.215l.177-.188c.061-.061.123-.123.184-.181.4-.077.5-.692,1.018-.542a10.313,10.313,0,0,1-2.355,2.34,5.011,5.011,0,0,1-2.106.749c-.092-.442.2-.442.515-.515a3.388,3.388,0,0,0,1.987-.964C192.328,377.963,192.416,377.866,192.5,377.774Z" transform="translate(-131.162 -301.848)"/><path class="a" d="M201.539,375.5a.347.347,0,0,1,.192-.473C201.8,375.245,201.678,375.376,201.539,375.5Z" transform="translate(-138.421 -300.986)"/><path class="a" d="M202.04,374.756a.275.275,0,0,1,.288-.2Q202.19,374.658,202.04,374.756Z" transform="translate(-138.745 -300.697)"/><path class="a" d="M274.145,234.614c-.146.031-.3.05-.442.088-1.226.323-1.364.238-1.733-1.122a4.181,4.181,0,0,0,2.179.711c.215-.019.012.219-.023.338C274.129,234.629,274.145,234.617,274.145,234.614Z" transform="translate(-181.805 -213.888)"/><path class="a" d="M272.468,243.173a.832.832,0,0,0-.058-.649,7.463,7.463,0,0,0-.48-2.559c.38-.242.342.138.423.3.154.307.065.7.3.984C272.579,241.885,272.8,242.558,272.468,243.173Z" transform="translate(-181.78 -217.771)"/><path class="a" d="M270.273,240.647c-.042-.065-.085-.131-.123-.2,0-.008.042-.038.061-.058.023.081.046.165.073.246Z" transform="translate(-180.683 -218.081)"/><path class="c" d="M270.847,237.648c-.027-.012-.054-.027-.077-.038.023.015.05.027.073.042Z" transform="translate(-181.066 -216.37)"/><path class="c" d="M270.96,237.714l.077.042-.073-.046Z" transform="translate(-181.183 -216.431)"/><path class="b" d="M44.491,248.278a3.222,3.222,0,0,1-.254-2.148C44.322,246.845,44.406,247.563,44.491,248.278Z" transform="translate(-41.527 -221.616)"/><path class="a" d="M254.016,187.713c-.2-.054-.223-.2-.188-.373C254.062,187.378,254.1,187.517,254.016,187.713Z" transform="translate(-170.625 -185.416)"/><path class="a" d="M254.517,188.467c-.161.035-.2-.054-.188-.188C254.486,188.244,254.513,188.344,254.517,188.467Z" transform="translate(-170.941 -185.99)"/><path class="a" d="M201.861,373.414c-.012-.046-.019-.092-.031-.138a.979.979,0,0,1,.15-.008c.012,0,.035.065.031.069C201.961,373.364,201.911,373.391,201.861,373.414Z" transform="translate(-138.616 -299.901)"/><path class="a" d="M200.9,374.231l.2-.081c-.027.069-.054.138-.077.2Z" transform="translate(-138.043 -300.444)"/><path class="a" d="M200.43,374.544c.061-.061.123-.123.181-.184.038.042.081.085.123.127-.061.061-.123.119-.184.181C200.511,374.629,200.472,374.587,200.43,374.544Z" transform="translate(-137.754 -300.574)"/><path class="a" d="M200.254,374.963c-.058.065-.115.127-.173.192-.042-.046-.088-.088-.131-.135.061-.058.127-.119.188-.181C200.177,374.882,200.215,374.925,200.254,374.963Z" transform="translate(-137.458 -300.869)"/><path class="a" d="M199.76,375.451c-.061.061-.119.123-.181.188-.05-.046-.1-.1-.15-.142.065-.058.131-.119.2-.177C199.672,375.362,199.718,375.4,199.76,375.451Z" transform="translate(-137.138 -301.165)"/><path class="a" d="M199.3,375.912c-.061.061-.123.123-.181.184-.046-.05-.1-.1-.142-.158.058-.058.119-.111.177-.169C199.207,375.82,199.257,375.866,199.3,375.912Z" transform="translate(-136.861 -301.442)"/><path class="a" d="M93.76,335.55c.565.188.638.657.665,1.153A1.184,1.184,0,0,1,93.76,335.55Z" transform="translate(-72.072 -276.676)"/><path class="a" d="M93.51,341.177c.119-.108.261-.354.4-.177.15.2-.115.261-.269.327C93.595,341.277,93.552,341.227,93.51,341.177Z" transform="translate(-71.918 -279.994)"/><path class="a" d="M58.516,302.824c.319.134.342.4.354.784a.766.766,0,0,1-.346-.788Z" transform="translate(-50.368 -256.523)"/><path class="a" d="M57.785,300.825c-.023.031-.05.061-.073.088a.606.606,0,0,1-.042-.142c0-.019.027-.042.046-.061Z" transform="translate(-49.849 -255.224)"/><path class="a" d="M58.285,302.311a.2.2,0,0,1-.154-.25c0-.027.073-.042.108-.061.012.108.027.211.038.319Z" transform="translate(-50.13 -256.018)"/><path class="a" d="M59.7,305.647c-.058-.088-.111-.181-.169-.269.042-.012.085-.027.127-.038l.023.323Z" transform="translate(-50.994 -258.074)"/><g transform="translate(18.103 2.339)"><path class="b" d="M113.887,247.241a29.41,29.41,0,1,1,29.376-29.507A29.426,29.426,0,0,1,113.887,247.241Zm-28.8-29.191a28.754,28.754,0,1,0,28.527-28.972A28.771,28.771,0,0,0,85.091,218.049Z" transform="translate(-84.43 -188.42)"/><path class="c" d="M116.289,248.143a27.887,27.887,0,1,1,27.893-27.766A27.946,27.946,0,0,1,116.289,248.143Zm-26.167-27.87a26.179,26.179,0,1,0,26.029-26.179A26.2,26.2,0,0,0,90.122,220.274Z" transform="translate(-86.887 -190.852)"/></g><path class="a" d="M247.11,321.016c.042-.215.119-.407.365-.45.1-.015.181.05.154.158a.462.462,0,0,1-.457.354S247.11,321.016,247.11,321.016Z" transform="translate(-166.497 -267.449)"/><path class="b" d="M272.989,278.322c-.069.334-.2.553-.519.207a7.284,7.284,0,0,1,.653-2.459c.019.638.038,1.276.054,1.91l0-.027C273.031,278.034,272.812,278.072,272.989,278.322Z" transform="translate(-182.101 -240.051)"/><path class="c" d="M275.881,259.13c-.054.061-.108.123-.161.188C275.774,259.257,275.828,259.2,275.881,259.13Z" transform="translate(-184.114 -229.621)"/><path class="a" d="M260.49,205.106v-.2c.038.019.077.042.115.061A1.257,1.257,0,0,1,260.49,205.106Z" transform="translate(-174.736 -196.235)"/><path class="b" d="M275.7,270.159a11.19,11.19,0,0,1,.1-2.609c-.085.865.33,1.748-.119,2.6A.056.056,0,0,1,275.7,270.159Z" transform="translate(-184.086 -234.805)"/><path class="a" d="M263.835,304.839c-.019-.576.407-.953.615-1.429a1.682,1.682,0,0,1-.63,1.41Z" transform="translate(-176.786 -256.886)"/><path class="a" d="M265.935,302.291l-.058.069a1.1,1.1,0,0,1-.058-.158c0-.019.031-.046.05-.073C265.893,302.188,265.912,302.241,265.935,302.291Z" transform="translate(-178.017 -256.098)"/><path class="a" d="M263.627,307.08c-.031.042-.058.088-.088.131-.012-.038-.027-.073-.038-.111.046,0,.092,0,.138,0C263.638,307.1,263.627,307.08,263.627,307.08Z" transform="translate(-176.589 -259.146)"/><path class="a" d="M261.46,309.644v-.2c.108,0,.15.065.127.158C261.579,309.624,261.506,309.632,261.46,309.644Z" transform="translate(-175.333 -260.599)"/><path class="c" d="M273.746,281.345c-.177-.246.046-.288.192-.365A.348.348,0,0,1,273.746,281.345Z" transform="translate(-182.858 -243.075)"/><path class="c" d="M272.62,285.137c.069-.077.142-.15.211-.227.111.142.061.254-.061.354C272.72,285.225,272.67,285.179,272.62,285.137Z" transform="translate(-182.205 -245.495)"/><g transform="translate(28.936 8.003)"><path class="e" d="M174.893,213.406a4.544,4.544,0,0,1-3.089,4.511c-.365.127-.461,0-.515-.323a4.513,4.513,0,0,1,2.74-5.141c.669-.292.738-.257.83.45C174.885,213.122,174.889,213.345,174.893,213.406Z" transform="translate(-148.695 -208.776)"/><path class="e" d="M182.5,220.624a4.3,4.3,0,0,1-3.385,4.319c-.342.088-.473.008-.507-.354a4.361,4.361,0,0,1,3.4-4.73C182.867,219.668,182.31,220.413,182.5,220.624Z" transform="translate(-153.238 -213.424)"/><path class="e" d="M140.814,211.814c-.027-1.187.081-1.257,1.145-.765a4.351,4.351,0,0,1,2.555,4.6c-.042.373-.131.546-.569.4A4.287,4.287,0,0,1,140.814,211.814Z" transform="translate(-129.979 -207.841)"/><path class="e" d="M134.116,254.968a5.635,5.635,0,0,1,1.568.334c.346.108.45.25.231.6a4.4,4.4,0,0,1-5.552,1.779c-.242-.1-.469-.177-.242-.5A4.45,4.45,0,0,1,134.116,254.968Z" transform="translate(-123.339 -235.061)"/><path class="e" d="M190.235,236.348c-1.022-.015-1.064-.077-.672-1a4.3,4.3,0,0,1,4.669-2.7c.423.05.538.177.373.611A4.294,4.294,0,0,1,190.235,236.348Z" transform="translate(-159.857 -221.297)"/><path class="e" d="M180.8,233.288c1.084.023,1.118.085.649,1.087a4.25,4.25,0,0,1-4.5,2.617c-.626-.054-.676-.131-.465-.7A4.31,4.31,0,0,1,180.8,233.288Z" transform="translate(-151.879 -221.711)"/><path class="e" d="M193.784,247.029a4.435,4.435,0,0,1-3.842-2.175c-.161-.223-.131-.346.131-.446a4.367,4.367,0,0,1,5.729,1.7c.223.319.054.434-.2.526A5.224,5.224,0,0,1,193.784,247.029Z" transform="translate(-160.17 -228.289)"/><path class="e" d="M179.857,245.817a4.315,4.315,0,0,1,4.173,2.667c.161.3.058.423-.234.511a4.426,4.426,0,0,1-5.349-2.567c-.115-.273-.092-.4.211-.476A6.362,6.362,0,0,1,179.857,245.817Z" transform="translate(-153.114 -229.425)"/><path class="e" d="M121.882,238.2a4.4,4.4,0,0,1,3.477,1.8c.215.242.165.392-.123.553a4.393,4.393,0,0,1-5.752-1.2c-.219-.292-.188-.419.131-.58A5.483,5.483,0,0,1,121.882,238.2Z" transform="translate(-116.76 -224.734)"/><path class="e" d="M132.114,232.265a4.319,4.319,0,0,1,4.188,4.1c.042.369-.1.45-.438.423a4.393,4.393,0,0,1-4.127-4.042C131.7,232.385,131.776,232.192,132.114,232.265Z" transform="translate(-124.387 -221.072)"/><path class="e" d="M132.6,221.973c.058.891-.061.984-.884.68a4.256,4.256,0,0,1-3.059-4.377c0-.638.058-.684.649-.5A4.218,4.218,0,0,1,132.6,221.973Z" transform="translate(-122.497 -212.102)"/><path class="e" d="M130.834,249.494a5.642,5.642,0,0,1-2.459-.669c-.269-.142-.35-.273-.142-.553a4.478,4.478,0,0,1,5.852-1.022c.254.169.254.288.077.523A5.056,5.056,0,0,1,130.834,249.494Z" transform="translate(-122.162 -229.897)"/><path class="e" d="M120.373,229.991a4.212,4.212,0,0,1-4.2-2.963c-.131-.4-.111-.557.373-.607a4.292,4.292,0,0,1,4.8,2.767c.277.684.223.769-.542.8C120.657,229.995,120.515,229.991,120.373,229.991Z" transform="translate(-114.764 -217.461)"/><path class="e" d="M163.914,212.893a4.365,4.365,0,0,1-1.825,3.093c-.234.2-.365.115-.511-.138a4.3,4.3,0,0,1,1.268-5.618c.265-.181.38-.127.5.134A5.888,5.888,0,0,1,163.914,212.893Z" transform="translate(-142.428 -207.448)"/><path class="e" d="M155.413,218.9c-.008.523.085,1.272-.315,1.464-.457.219-.949-.361-1.36-.7a3.949,3.949,0,0,1-1.218-4.277c.088-.388.288-.369.565-.211A3.929,3.929,0,0,1,155.413,218.9Z" transform="translate(-137.089 -210.497)"/><path class="e" d="M115.18,248.963a4.7,4.7,0,0,1-2.3-.672c-.3-.165-.354-.311-.1-.592a4.082,4.082,0,0,1,5.287-.745c.315.2.4.327.1.619A4.266,4.266,0,0,1,115.18,248.963Z" transform="translate(-112.621 -229.723)"/><path class="e" d="M165.406,227.841a4.112,4.112,0,0,1-1.414,3.016c-.254.257-.384.142-.546-.111a3.973,3.973,0,0,1,.772-5.18c.292-.257.43-.188.58.115A4.59,4.59,0,0,1,165.406,227.841Z" transform="translate(-143.528 -216.859)"/><path class="e" d="M180.7,267.41c-.015.365.1.953-.25,1.118-.323.146-.772-.234-1.122-.473a3.8,3.8,0,0,1-1.637-4.008c.077-.354.188-.473.565-.311A3.744,3.744,0,0,1,180.7,267.41Z" transform="translate(-152.635 -240.417)"/><path class="e" d="M180.655,257.272a3.891,3.891,0,0,1-3.062-1.7c-.2-.246-.115-.369.142-.5a3.942,3.942,0,0,1,5.018,1.253c.2.288.134.4-.15.526A4.816,4.816,0,0,1,180.655,257.272Z" transform="translate(-152.559 -234.859)"/><path class="e" d="M188.117,266.91a3.706,3.706,0,0,1-3.643-2.494c-.169-.43.042-.473.365-.523a3.854,3.854,0,0,1,4.338,2.34c.223.48.1.665-.4.676C188.563,266.914,188.34,266.91,188.117,266.91Z" transform="translate(-156.828 -240.52)"/><path class="e" d="M155.053,232.4c0,1.022-.058,1.064-1.011.676a3.4,3.4,0,0,1-2.267-3.739c.046-.484.211-.622.7-.457A3.385,3.385,0,0,1,155.053,232.4Z" transform="translate(-136.717 -218.958)"/><path class="e" d="M154.252,205.243a4.307,4.307,0,0,1,.407-1.764c.123-.334.277-.43.615-.169a3.727,3.727,0,0,1,1.041,4.726c-.142.269-.246.361-.534.15A3.8,3.8,0,0,1,154.252,205.243Z" transform="translate(-138.252 -203.16)"/><path class="e" d="M133.283,265.762a2.872,2.872,0,0,1-2.628,2.982c-.465.069-.653-.05-.646-.557a2.88,2.88,0,0,1,2.525-3.066C133.241,264.99,133.307,265.043,133.283,265.762Z" transform="translate(-123.328 -241.278)"/><path class="e" d="M140.674,223.154c-.019-.753.008-.772.726-.519a3.442,3.442,0,0,1,2.452,3.5c-.008.473-.154.538-.58.407A3.437,3.437,0,0,1,140.674,223.154Z" transform="translate(-129.892 -215.062)"/><path class="e" d="M146.577,237.165a3.367,3.367,0,0,1-3.32-2.647c-.065-.281-.027-.392.292-.423a3.428,3.428,0,0,1,3.662,2.613C147.372,237.441,146.777,237.045,146.577,237.165Z" transform="translate(-131.469 -222.198)"/><path class="e" d="M172.8,231.24a3.4,3.4,0,0,1-1.445,2.54c-.227.184-.338.092-.465-.123a3.441,3.441,0,0,1,1.045-4.377c.238-.158.35-.115.453.127A4.533,4.533,0,0,1,172.8,231.24Z" transform="translate(-148.256 -219.187)"/><path class="e" d="M172.361,206.722a3.223,3.223,0,0,1-1.683,2.82c-.25.165-.407.1-.488-.177a3.283,3.283,0,0,1,1.483-4.073c.265-.169.388-.1.473.181A4.577,4.577,0,0,1,172.361,206.722Z" transform="translate(-147.95 -204.416)"/><path class="e" d="M193.635,222.24a3.255,3.255,0,0,1-2.713,3.139c-.377.077-.519.008-.5-.4a3.3,3.3,0,0,1,2.621-3.166C193.558,221.7,193.665,221.775,193.635,222.24Z" transform="translate(-160.528 -214.617)"/><path class="e" d="M182.4,212.883a3.246,3.246,0,0,1,2.728-3.082c.369-.069.457.061.457.4a3.307,3.307,0,0,1-2.778,3.2C182.247,213.5,182.42,213.114,182.4,212.883Z" transform="translate(-155.581 -207.239)"/><path class="e" d="M139.964,266.032a3.11,3.11,0,0,1,2.106-3.024c.319-.123.453-.115.507.28a3.122,3.122,0,0,1-1.841,3.428c-.657.334-.749.281-.776-.446C139.964,266.2,139.964,266.112,139.964,266.032Z" transform="translate(-129.455 -239.968)"/><path class="e" d="M194.852,257.3a3.255,3.255,0,0,1-2.728-1.356c-.211-.254-.1-.365.154-.488a3.227,3.227,0,0,1,4.031.93c.215.284.2.446-.138.584A3.733,3.733,0,0,1,194.852,257.3Z" transform="translate(-161.507 -235.149)"/><path class="e" d="M121.265,255.009c.4.081,1.041-.108,1.237.4.177.461-.361.765-.672,1.087a2.984,2.984,0,0,1-3.235.592c-.338-.154-.207-.342-.085-.523A3.1,3.1,0,0,1,121.265,255.009Z" transform="translate(-116.167 -235.085)"/><path class="e" d="M201.251,241.551a3.02,3.02,0,0,1-2.01-.715c-.246-.188-.192-.33.038-.507a2.8,2.8,0,0,1,3.524.127c.219.2.246.342-.015.511A2.871,2.871,0,0,1,201.251,241.551Z" transform="translate(-165.859 -225.701)"/><path class="c" d="M158.455,252.243c0,2.717-.027,5.429.012,8.146a3.682,3.682,0,0,1-2.448,3.8,1.122,1.122,0,0,0-.638.684,9.359,9.359,0,0,0-.557,3.093,19.421,19.421,0,0,0,.365,5.376,6.406,6.406,0,0,0,.184.642c.311.918.311.915-.711.915-1.053,0-2.11-.012-3.162.008-.442.008-.519-.088-.315-.511a8.587,8.587,0,0,0,.672-3.132,18.23,18.23,0,0,0-.288-5.741,2.035,2.035,0,0,0-1.214-1.533,3.362,3.362,0,0,1-2.04-3.312c.031-3.385.073-6.767.088-10.152.012-2.025.038-4.054-.108-6.079-.023-.323-.012-.649-.027-.972-.015-.3.173-.384.407-.427.319-.061.307.188.338.377.33,1.894.6,3.8.83,5.706.219,1.852.423,3.7.519,5.564.008.142.035.281.05.423.015.169.05.327.265.342.238.015.327-.131.346-.33.05-.526.1-1.049.131-1.575.207-3.42.307-6.843.2-10.267,0-.081-.012-.161-.012-.242-.008-.215.012-.411.3-.434.3-.027.373.158.4.407.15,1.349.327,2.694.465,4.046.269,2.621.473,5.245.565,7.877.008.2-.177.561.311.546.411-.015.365-.292.38-.549.115-1.879.2-3.766.35-5.641.169-2.06.4-4.111.626-6.167.023-.231-.027-.58.38-.569.423.012.327.342.323.584q-.069,4.559.123,9.118c.038.949.158,1.891.238,2.836.015.184.019.4.277.38.211-.015.2-.208.215-.373.238-2.232.461-4.469.734-6.7.2-1.648.457-3.289.7-4.934.035-.231-.042-.576.4-.519.4.054.338.346.323.6C158.271,246.448,158.359,249.345,158.455,252.243Z" transform="translate(-134.571 -227.42)"/></g></g><g transform="translate(-1297.07 -334.636)"><path class="c" d="M87.008,396.418a.27.27,0,0,1-.25.261,11.7,11.7,0,0,0-2.221-.188c-6.4,0-8.972,3.639-8.972,5.287a.142.142,0,0,1-.161.146,1.439,1.439,0,0,1-.934-1.46c0-2.017,3.274-4.734,8.284-4.734C86.29,395.734,87.008,396.272,87.008,396.418Zm-4.15,1.157c0,.073-.146.188-.407.453a17.105,17.105,0,0,0-3.389,9.072c0,1.4.423,1.445.423,1.549,0,.146-.188.307-.48.307-.8,0-1.564-.657-1.564-2.133,0-4.135,4.3-9.687,4.968-9.687A.543.543,0,0,1,82.858,397.574Z" transform="translate(-74.47 -395.73)"/><path class="c" d="M94.528,418.918a1.653,1.653,0,0,1-1.768-1.71,3.448,3.448,0,0,1,2.82-3.258,1.073,1.073,0,0,1,.861.949,2.3,2.3,0,0,1-1.856,2.017,1.345,1.345,0,0,1-.469-.161,2.542,2.542,0,0,0-.188,1.007c0,.438.161.584.35.584,1,0,2.294-1.518,3.009-2.528.058-.073.088-.115.131-.115a.3.3,0,0,1,.25.261.569.569,0,0,1-.115.292C97.014,417.047,95.492,418.918,94.528,418.918Zm-.219-2.632a3.183,3.183,0,0,0,1.591-1.533c0-.058-.031-.1-.073-.1C95.669,414.649,95.039,415,94.309,416.286Z" transform="translate(-85.732 -406.949)"/><path class="c" d="M104.534,411.035a1.575,1.575,0,0,1-1.314-1.741c0-2.571,3.566-7.132,3.593-8.941,0-.2.058-.323.177-.323a1.273,1.273,0,0,1,.542,1.183c0,1.664-3.143,6.751-3.143,8.941,0,.188.1.292.219.292.38,0,1.871-1.971,2.732-3.2.058-.073.088-.115.131-.115a.3.3,0,0,1,.25.261.569.569,0,0,1-.115.292C106.947,408.768,105.529,411.035,104.534,411.035Z" transform="translate(-92.173 -398.378)"/><path class="c" d="M113.924,411.035a1.575,1.575,0,0,1-1.314-1.741c0-2.571,3.566-7.132,3.593-8.941,0-.2.058-.323.177-.323a1.273,1.273,0,0,1,.542,1.183c0,1.664-3.143,6.751-3.143,8.941,0,.188.1.292.219.292.38,0,1.871-1.971,2.732-3.2.058-.073.088-.115.131-.115a.3.3,0,0,1,.25.261.569.569,0,0,1-.115.292C116.337,408.768,114.919,411.035,113.924,411.035Z" transform="translate(-97.955 -398.378)"/><path class="c" d="M125.676,417.34a1.107,1.107,0,0,1-1.141-1.168c-.042.1-1.007,2.279-2.106,2.279a1.2,1.2,0,0,1-1.2-1.141c.015-1.445,1.433-2.863,1.9-4.254a.2.2,0,0,1,.177-.146c.292,0,.657.407.657.934,0,.626-1.287,2.544-1.287,3.608,0,.131.073.2.177.2.234,0,.7-.626,1.518-2.06.715-1.257.834-2.017,1.241-2.017a.787.787,0,0,1,.688.73c0,.6-.715,1.3-.715,2.044a.237.237,0,0,0,.234.25c.323,0,.98-.834,1.46-1.433.058-.073.088-.115.131-.115a.3.3,0,0,1,.25.261.569.569,0,0,1-.115.292C127.213,416.145,126.394,417.34,125.676,417.34Z" transform="translate(-103.262 -406.309)"/><path class="c" d="M136.592,413.239c-.073,0-.292-.131-.292-.277a.841.841,0,0,1,.161-.292c.569-.849,1.007-1.637,1.007-1.637a1.866,1.866,0,0,1-.365-.849c0-.73.688-1.564,1.037-1.564a.534.534,0,0,1,.469.553,3.73,3.73,0,0,1-.569,1.433c0,.469,1.141,1.141,1.141,1.81,0,.715-.73,1.652-.73,2.571,0,.146.088.219.177.219.453,0,1.929-1.944,2.455-2.674.058-.073.088-.115.131-.115a.3.3,0,0,1,.25.261.569.569,0,0,1-.115.292c-.5.73-1.914,2.878-2.878,2.878a1.385,1.385,0,0,1-1.433-1.287c0-1.214,1.2-2.044,1.2-2.732,0-.188-.042-.2-.38-.469,0,0-.38.642-1.1,1.725C136.7,413.181,136.654,413.239,136.592,413.239Z" transform="translate(-112.542 -403.667)"/><path class="c" d="M148.583,415.148a1.45,1.45,0,0,1-1.4-1.518c0-1.053.964-1.783,1.856-3.258.1-.177.146-.307.25-.307s.35.261.35.542c-.031,1.272-1.3,2.571-1.33,3.654,0,.25.131.323.25.323.38,0,1.814-1.71,2.309-2.409.058-.073.088-.115.131-.115a.3.3,0,0,1,.25.261.569.569,0,0,1-.115.292C150.715,413.307,149.4,415.148,148.583,415.148Zm2.075-6.6a.5.5,0,0,1-.407.469.694.694,0,0,1-.657-.63.362.362,0,0,1,.4-.365C150.262,408.02,150.657,408.193,150.657,408.546Z" transform="translate(-119.241 -403.298)"/><path class="c" d="M161.368,407.139c.058-.073.088-.115.131-.115a.3.3,0,0,1,.25.261.569.569,0,0,1-.115.292c-.5.73-1.345,2.06-1.914,2.06-.876,0-1.183-.615-1.183-1.725-.788.861-1.622,2.544-2.555,2.544a1.348,1.348,0,0,1-1.11-1.257c0-2,2.106-3.915,3.389-3.915.365,0,.642.261.642.407,0,.088-.35.234-.688.542-.642.584-2.263,2.017-2.263,3.4,0,.1.042.177.131.177.334,0,2.409-2.69,3.07-3.812a19.258,19.258,0,0,0,2.133-5.7c.073-.365.088-.453.234-.453a1.4,1.4,0,0,1,.964,1.46c0,1.345-3.055,5.656-3.055,7.335,0,.25.073.423.219.423C159.965,409.068,160.841,407.869,161.368,407.139Z" transform="translate(-123.976 -398.267)"/><path class="c" d="M172.608,418.918a1.653,1.653,0,0,1-1.768-1.71,3.448,3.448,0,0,1,2.82-3.258,1.073,1.073,0,0,1,.861.949,2.3,2.3,0,0,1-1.856,2.017,1.345,1.345,0,0,1-.469-.161,2.542,2.542,0,0,0-.188,1.007c0,.438.161.584.35.584,1,0,2.294-1.518,3.009-2.528.058-.073.088-.115.131-.115a.3.3,0,0,1,.25.261.569.569,0,0,1-.115.292C175.09,417.047,173.568,418.918,172.608,418.918Zm-.223-2.632a3.183,3.183,0,0,0,1.591-1.533c0-.058-.031-.1-.073-.1C173.745,414.649,173.119,415,172.385,416.286Z" transform="translate(-133.81 -406.949)"/><path class="c" d="M197.48,402.4a.3.3,0,0,1-.25-.219c0-.177,1.741-1.929,1.741-3.435,0-.48-.234-.672-.569-.672-3.1,0-7.143,5.583-7.143,9.687,0,1.387.7,1.887,1.579,1.887,2.763,0,5.86-3.4,6.34-4,.058-.073.1-.115.131-.115.131,0,.188.177.188.365s-3.389,4.573-6.34,4.573A3.437,3.437,0,0,1,189.81,407c0-4.792,4.88-9.583,8.138-9.583a1.825,1.825,0,0,1,2.033,1.96C199.981,400.982,197.875,402.4,197.48,402.4Z" transform="translate(-145.491 -396.771)"/><path class="c" d="M216.455,409.611a1.073,1.073,0,0,1-1.068-1.068c0-1.168,1.256-2.336,1.256-2.674a.069.069,0,0,0-.058-.073,12.13,12.13,0,0,0-3.024,3.258c-.569.964-.657,1.287-.818,1.287s-.423-.307-.423-.8c0-2.294,3.362-6.778,3.362-9.629,0-.131.058-.219.161-.219a1.43,1.43,0,0,1,1.007,1.329c0,2.148-2.325,4.822-2.79,6.486,1.141-1.345,2.179-2.309,2.966-2.309a.861.861,0,0,1,.849.861c0,.964-1.564,1.944-1.564,2.774,0,.146.073.2.161.2.38,0,1.549-1.372,2.017-2,.058-.073.088-.115.131-.115a.3.3,0,0,1,.25.261.569.569,0,0,1-.115.292C218.341,408.105,217.173,409.611,216.455,409.611Z" transform="translate(-159.351 -398.168)"/><path class="c" d="M229.188,418.918a1.653,1.653,0,0,1-1.768-1.71,3.448,3.448,0,0,1,2.82-3.258,1.073,1.073,0,0,1,.861.949,2.3,2.3,0,0,1-1.856,2.017,1.345,1.345,0,0,1-.469-.161,2.542,2.542,0,0,0-.188,1.007c0,.438.161.584.35.584,1,0,2.294-1.518,3.009-2.528.058-.073.088-.115.131-.115a.3.3,0,0,1,.25.261.569.569,0,0,1-.115.292C231.674,417.047,230.152,418.918,229.188,418.918Zm-.219-2.632a3.206,3.206,0,0,0,1.595-1.533c0-.058-.031-.1-.073-.1C230.329,414.649,229.7,415,228.969,416.286Z" transform="translate(-168.649 -406.949)"/><path class="c" d="M237.979,410.013a5.89,5.89,0,0,1,.526,2.382c0,2.325-1.3,4.354-2.06,4.354-.949,0-1.606-.891-1.606-2.325,0-4.3,3.739-10.913,3.739-13.649a.13.13,0,0,1,.146-.146c.453,0,1.007.642,1.007,1.652,0,1.126-1.36,3.681-2.409,6.851a.72.72,0,0,0,.626.307c.818,0,1.8-1.111,2.309-1.825.058-.073.088-.115.131-.115a.3.3,0,0,1,.25.261.569.569,0,0,1-.115.292C240.112,408.669,239.074,410.013,237.979,410.013Zm-.876-.161a20.236,20.236,0,0,0-.98,5.86c0,.219.058.411.25.411.307,0,1.007-1.652,1.007-4.092A8,8,0,0,0,237.1,409.852Z" transform="translate(-173.218 -398.747)"/></g></g></svg>